<?xml version="1.0" standalone="no"?>
<!DOCTYPE svg PUBLIC "-//W3C//DTD SVG 20010904//EN"
 "http://www.w3.org/TR/2001/REC-SVG-20010904/DTD/svg10.dtd">
<svg version="1.0" xmlns="http://www.w3.org/2000/svg"
 width="1310.000000pt" height="835.000000pt" viewBox="0 0 1310.000000 835.000000"
 preserveAspectRatio="xMidYMid meet">

<g transform="translate(0.000000,835.000000) scale(0.100000,-0.100000)"
fill="#000000" stroke="none">
<path d="M0 4175 l0 -4175 6550 0 6550 0 0 4175 0 4175 -6550 0 -6550 0 0
-4175z m370 15 c0 -2156 -3 -3920 -7 -3920 -5 0 -7 1756 -6 3902 3 4531 2
3938 8 3938 3 0 5 -1764 5 -3920z m12350 3913 c0 -5 -2774 -8 -6165 -8 -3391
0 -6165 3 -6165 8 0 4 2774 7 6165 7 3391 0 6165 -3 6165 -7z m30 -3933 l0
-3930 -6195 0 c-3407 0 -6195 3 -6195 8 0 4 2786 6 6190 4 l6190 -2 -2 3925
c-2 2159 0 3925 5 3925 4 0 7 -1768 7 -3930z m-6185 2209 c4 -5 -15 -9 -45 -9
-28 0 -49 4 -46 8 7 11 84 13 91 1z m-218 -11 c21 2 40 -4 50 -14 16 -15 15
-16 -14 -10 -19 4 -34 3 -38 -3 -6 -11 7 -15 33 -12 6 1 13 -6 13 -16 1 -17 2
-17 6 0 3 13 11 17 24 14 10 -3 19 -1 19 4 0 5 9 9 19 9 11 0 23 5 27 11 4 8
26 10 61 6 32 -3 51 -2 48 4 -4 5 0 9 8 9 7 0 14 -7 14 -15 0 -12 -12 -15 -55
-13 -40 2 -57 -1 -60 -11 -4 -11 1 -12 19 -7 56 18 96 -1 66 -31 -16 -16 -15
-18 13 -29 32 -14 41 -34 15 -34 -8 0 -15 -7 -15 -15 0 -13 4 -14 21 -4 17 9
20 8 17 -3 -3 -7 -19 -14 -37 -16 -31 -3 -32 -2 -29 30 l3 33 -48 0 c-45 0
-48 2 -42 23 4 17 1 22 -15 22 -22 0 -28 -25 -7 -34 8 -3 7 -9 -7 -20 -19 -15
-19 -16 0 -21 37 -12 49 -22 52 -44 2 -11 -1 -21 -7 -21 -6 0 -11 -9 -11 -20
0 -23 15 -27 24 -5 3 8 12 12 19 9 8 -3 17 2 20 10 4 9 16 16 27 16 12 0 19
-4 15 -10 -3 -5 -12 -7 -20 -3 -8 3 -15 0 -15 -6 0 -6 10 -11 23 -11 18 0 19
-2 7 -10 -12 -8 -12 -10 -1 -10 8 0 11 -3 8 -7 -4 -3 -2 -12 4 -20 9 -10 8
-13 -5 -13 -9 0 -16 -3 -16 -8 0 -10 60 -36 67 -28 3 3 -2 8 -11 12 -22 9 -20
20 7 29 18 6 19 8 5 12 -13 3 -16 11 -11 34 4 20 2 29 -7 29 -8 0 -10 3 -7 7
4 3 16 -2 26 -11 11 -10 24 -15 29 -12 6 3 12 -1 16 -9 3 -8 2 -15 -3 -15 -4
0 -6 -11 -4 -24 3 -13 0 -27 -6 -30 -14 -9 -14 -26 -1 -26 6 0 10 6 10 14 0 7
7 19 16 27 8 7 13 21 11 31 -3 10 -1 21 4 24 5 3 9 0 9 -5 0 -6 7 -11 15 -11
8 0 15 5 15 11 0 22 -22 49 -40 49 -13 0 -17 5 -14 14 3 8 11 13 18 10 7 -3
19 2 26 12 12 14 12 16 -5 14 -34 -4 -38 -1 -24 17 13 15 12 15 -9 4 -20 -10
-27 -10 -41 3 -10 9 -21 14 -24 11 -4 -3 -5 -2 -2 2 3 3 -3 12 -13 19 -14 11
-14 13 -2 14 13 0 13 1 0 10 -12 8 -11 10 7 10 28 0 39 17 16 23 -14 4 -13 5
5 6 12 0 22 -5 22 -11 0 -7 14 -14 30 -15 18 -1 28 2 25 7 -4 6 1 10 9 10 21
0 29 -17 10 -24 -9 -3 -29 -6 -45 -6 -23 0 -29 -4 -29 -21 0 -16 3 -19 13 -12
6 5 29 10 51 10 40 1 65 21 43 35 -8 5 -6 8 7 8 13 0 17 -5 13 -19 -4 -17 -2
-18 18 -9 16 7 28 7 41 -2 16 -10 17 -11 2 -6 -21 6 -48 -2 -48 -15 0 -5 7 -9
16 -9 8 0 12 -4 9 -10 -3 -5 1 -10 9 -10 8 0 20 8 25 18 12 19 14 12 5 -12 -7
-19 -65 -22 -61 -4 3 16 -42 23 -56 9 -8 -8 -3 -11 16 -11 26 0 33 -17 12 -32
-23 -16 7 -19 40 -4 19 10 44 14 55 11 16 -5 19 -3 13 11 -4 12 -3 15 5 10 7
-4 12 -16 12 -27 0 -10 5 -19 10 -19 6 0 10 7 10 16 0 9 5 12 12 8 8 -5 9 -2
5 9 -5 12 -1 17 13 17 11 0 20 6 20 13 1 7 6 5 14 -5 10 -13 15 -15 24 -6 9 9
12 9 12 0 0 -7 7 -12 16 -12 11 0 14 -6 8 -22 -3 -13 -10 -28 -15 -34 -5 -6
-6 -14 -2 -17 11 -12 23 -8 23 8 0 8 3 15 8 16 4 0 15 2 24 4 11 2 15 -2 11
-11 -3 -8 4 -26 16 -38 15 -16 18 -25 10 -28 -8 -3 -7 -9 5 -20 21 -22 20 -26
-6 -30 -15 -2 -22 -9 -22 -21 1 -12 -6 -17 -25 -18 -15 0 -20 -3 -11 -6 8 -3
18 -11 22 -16 4 -7 12 -6 22 2 8 7 24 10 36 6 11 -4 20 -2 20 4 0 6 -5 11 -11
11 -8 0 -7 5 1 15 9 11 10 22 3 38 -8 16 -7 26 3 35 8 7 14 8 14 2 0 -5 5 -10
11 -10 5 0 7 5 4 10 -3 6 -3 10 1 10 15 0 90 -24 99 -32 5 -4 19 -8 31 -8 13
0 26 -5 29 -11 10 -15 -31 -56 -61 -62 -20 -3 -23 0 -22 19 2 23 33 43 45 30
4 -3 1 -6 -5 -6 -7 0 -12 -8 -12 -17 0 -14 3 -13 16 5 20 29 14 36 -26 27 -21
-5 -30 -11 -26 -21 3 -8 1 -14 -4 -14 -18 0 -11 38 8 42 9 2 12 6 7 10 -15 9
-46 -17 -48 -40 -1 -13 -6 -18 -16 -14 -9 3 -12 1 -7 -6 4 -7 14 -12 23 -12 8
0 28 -10 43 -22 15 -13 36 -28 46 -34 16 -10 12 -13 -38 -28 -31 -9 -66 -16
-77 -16 -30 0 -25 -13 11 -30 36 -17 48 -39 21 -36 -10 0 -17 -5 -16 -11 4
-19 -44 -16 -51 2 -3 8 -9 15 -13 14 -22 -4 -25 2 -7 15 23 17 16 27 -13 20
-18 -5 -21 -11 -16 -35 6 -33 -12 -41 -20 -9 -3 11 -12 23 -21 26 -22 8 -45
-13 -39 -35 6 -24 43 -36 43 -14 0 8 -4 11 -10 8 -5 -3 -10 -2 -10 3 0 6 7 12
15 16 14 5 20 -9 16 -41 -1 -7 5 -13 13 -13 9 0 25 -8 36 -17 19 -17 19 -17
-8 -30 l-27 -12 30 5 c24 5 27 3 15 -6 -12 -9 -10 -11 12 -6 15 3 29 2 32 -3
7 -11 -89 -30 -105 -20 -8 5 -4 9 12 12 l24 4 -25 1 c-14 0 -34 -3 -45 -8 -16
-7 -16 -9 -4 -9 9 -1 19 -8 23 -16 6 -16 45 -19 108 -9 32 6 36 9 34 32 -2 19
-11 28 -27 32 -21 5 -22 7 -6 13 10 4 28 2 39 -4 16 -8 23 -8 29 2 7 12 11 11
19 -1 5 -8 10 -24 11 -35 1 -11 5 -1 11 23 9 42 28 58 28 25 0 -13 9 -19 34
-20 29 -2 39 2 56 27 13 18 19 38 15 49 -5 15 -2 18 13 14 26 -6 38 15 17 30
-14 11 -12 14 21 26 27 10 33 16 23 22 -11 7 -10 9 5 9 18 0 18 1 1 20 -10 11
-30 20 -45 20 -14 0 -31 5 -38 12 -8 8 -12 8 -12 1 0 -6 7 -14 16 -17 13 -5
14 -9 4 -21 -6 -7 -11 -22 -9 -32 3 -29 -13 -83 -22 -77 -5 3 -9 16 -9 30 0
15 -6 24 -15 24 -8 0 -15 8 -15 17 0 36 -14 0 -16 -42 l-3 -45 34 0 c19 0 35
-4 35 -10 0 -5 -7 -10 -15 -10 -8 0 -15 -9 -15 -20 0 -11 -7 -20 -15 -20 -8 0
-15 5 -15 10 0 6 5 10 10 10 6 0 10 5 10 10 0 6 -16 10 -36 10 l-36 0 16 26
c18 26 18 71 1 67 -5 -1 -11 -15 -13 -30 -5 -37 -16 -47 -39 -34 -17 10 -17
10 0 11 10 0 17 8 17 20 0 14 -7 20 -21 20 -30 0 -14 17 29 30 20 7 41 16 46
21 15 14 15 69 -1 69 -17 0 -17 8 1 26 12 12 20 11 53 -1 21 -9 28 -13 16 -11
-13 2 -23 0 -23 -5 0 -5 3 -9 8 -10 4 0 14 -2 22 -4 8 -2 28 -7 43 -10 45 -9
78 -35 72 -55 -3 -10 -1 -21 5 -25 5 -3 10 1 10 10 0 9 4 14 9 11 5 -3 7 -16
3 -28 -4 -17 -2 -20 11 -15 10 4 17 2 17 -3 0 -5 -13 -8 -30 -7 -16 1 -30 5
-30 10 0 4 -7 7 -15 7 -29 0 -15 -17 25 -30 40 -13 54 -30 25 -30 -8 0 -15 -4
-15 -10 0 -5 -7 -10 -16 -10 -11 0 -14 6 -9 21 4 12 3 19 -1 17 -5 -2 -24 -10
-41 -17 -42 -16 -42 -31 -2 -31 20 0 29 -4 26 -12 -2 -7 -17 -13 -33 -13 -34
0 -57 -12 -48 -26 3 -5 9 -7 13 -5 3 3 7 -4 7 -15 0 -22 -7 -24 -23 -8 -12 12
-33 4 -33 -13 0 -5 7 -8 15 -4 12 4 15 -3 15 -29 l0 -35 -64 0 c-42 0 -80 7
-110 19 -33 15 -53 18 -75 11 -17 -4 -39 -6 -51 -3 -12 3 -20 0 -20 -6 0 -7
-5 -9 -10 -6 -6 4 -8 11 -4 16 3 6 -4 7 -20 3 -16 -4 -26 -2 -26 5 0 6 8 8 18
5 9 -3 6 1 -8 9 -14 9 -25 21 -25 28 0 7 -6 14 -13 17 -8 2 -10 -2 -5 -14 5
-13 3 -16 -10 -11 -10 4 -17 2 -17 -4 0 -6 9 -9 20 -6 11 3 23 1 26 -4 3 -5
-3 -9 -13 -10 -16 0 -16 -1 1 -8 19 -7 19 -8 -2 -13 -13 -4 -22 -2 -22 5 0 9
-3 8 -8 0 -5 -9 -42 -12 -119 -12 -97 0 -117 -3 -155 -23 -48 -25 -86 -32
-107 -19 -12 8 -12 13 4 37 16 24 19 25 27 10 8 -14 12 -15 26 -4 12 10 14 10
8 1 -4 -8 -1 -13 8 -13 23 0 8 28 -17 32 -11 2 -22 8 -24 14 -4 12 63 84 78
84 5 0 9 7 9 15 0 8 5 15 10 15 6 0 10 5 10 11 0 7 -7 8 -17 4 -36 -15 -66
-18 -59 -6 4 6 18 11 32 11 13 0 24 4 24 8 0 17 -13 21 -34 10 l-21 -11 20 23
c11 12 19 24 18 26 -2 2 -3 11 -3 20 0 11 5 14 16 10 14 -5 15 -4 4 9 -8 10
-9 15 -1 15 21 0 11 47 -14 64 -20 13 -29 14 -50 4 -25 -11 -34 -28 -14 -28 6
0 19 5 30 10 16 9 19 7 19 -10 0 -12 7 -20 17 -20 14 0 14 -3 -5 -20 -12 -11
-26 -20 -33 -20 -6 0 -9 8 -6 20 4 15 0 20 -13 20 -11 0 -22 -4 -25 -10 -4 -6
1 -7 11 -3 14 5 16 2 12 -15 -5 -18 -2 -22 20 -23 21 -1 17 -3 -13 -10 -56
-11 -115 -11 -115 1 0 6 -7 10 -15 10 -8 0 -15 -3 -15 -7 0 -13 50 -32 67 -26
11 4 14 1 12 -12 -2 -10 -10 -20 -18 -23 -8 -3 -11 0 -7 7 5 7 1 9 -9 5 -19
-8 -14 -30 6 -26 10 3 9 -1 -2 -15 -9 -10 -19 -32 -22 -50 -5 -26 -3 -31 8
-26 24 8 18 -5 -16 -38 -25 -24 -34 -28 -40 -17 -6 10 -9 10 -9 1 0 -7 -7 -13
-15 -13 -9 0 -12 -6 -8 -16 5 -13 7 -13 14 -2 7 10 9 10 9 -3 0 -8 -4 -19 -10
-25 -5 -5 -11 -29 -14 -54 -2 -25 -7 -53 -12 -64 -5 -14 -3 -17 7 -14 8 2 19
18 24 34 6 17 27 48 47 70 21 21 43 51 49 67 6 15 19 27 28 27 11 0 12 -3 4
-8 -19 -12 -25 -55 -10 -76 12 -16 17 -17 37 -6 l23 13 -21 -28 c-12 -15 -19
-32 -16 -37 4 -6 9 -6 13 -2 10 15 50 34 68 34 14 0 12 -4 -7 -15 -14 -8 -32
-17 -40 -21 -8 -4 -19 -13 -23 -21 -4 -7 -17 -13 -28 -13 -11 0 -29 -4 -39
-10 -15 -8 -20 -6 -25 10 -9 27 -15 25 -49 -11 -24 -25 -31 -28 -42 -17 -16
16 -20 47 -9 72 6 13 4 21 -3 24 -7 2 -12 14 -12 27 0 13 -4 26 -8 29 -5 3 -6
-15 -2 -40 4 -25 4 -60 0 -77 l-6 -32 -6 27 c-3 16 0 29 6 32 6 2 3 5 -7 5
-14 1 -16 5 -7 21 10 19 5 65 -10 85 -5 6 -11 28 -15 50 -5 27 -20 53 -48 83
-23 23 -36 42 -29 42 7 0 12 8 12 18 0 14 -2 15 -10 2 -7 -11 -10 -11 -10 -2
0 7 -8 12 -17 10 -12 -2 -18 3 -17 14 1 10 -4 14 -12 11 -10 -4 -12 0 -8 11 3
9 2 16 -4 16 -6 0 -19 3 -29 6 -16 5 -16 4 -2 -8 9 -7 14 -18 12 -24 -5 -15
30 -52 45 -47 6 3 12 0 12 -6 0 -6 -7 -11 -15 -11 -8 0 -19 -10 -26 -21 -8
-15 -8 -19 0 -15 7 5 11 -2 11 -18 0 -14 5 -28 10 -31 6 -3 10 -15 10 -26 0
-10 -4 -19 -10 -19 -5 0 -10 -7 -10 -15 0 -25 19 -17 26 11 4 14 4 45 1 70 -5
51 6 58 22 13 13 -37 15 -79 4 -79 -5 0 -7 -26 -6 -57 1 -32 -4 -71 -12 -88
-25 -56 -21 -81 22 -147 14 -20 22 -42 18 -49 -4 -6 -1 -15 6 -20 7 -4 10 -11
6 -15 -12 -12 -26 9 -29 44 -1 17 -5 32 -8 32 -3 0 -14 13 -23 30 -17 28 -19
28 -37 12 -24 -20 -26 -32 -5 -32 8 0 15 -8 16 -17 0 -11 3 -13 6 -5 7 18 21
15 33 -9 15 -27 7 -34 -19 -17 -18 11 -23 11 -31 -2 -12 -20 -2 -32 19 -21 10
6 23 6 32 0 10 -6 10 -9 2 -9 -7 0 -22 -9 -33 -20 l-20 -20 -10 25 c-5 14 -32
47 -60 73 -27 26 -50 53 -50 60 0 7 -8 12 -17 12 -10 0 -33 9 -51 20 -31 19
-37 37 -17 53 6 5 4 7 -5 4 -8 -2 -14 -10 -13 -16 4 -15 -8 -14 -29 3 -10 7
-14 17 -10 21 4 4 1 6 -7 3 -8 -2 -41 23 -76 58 -45 44 -72 63 -98 68 -35 7
-41 14 -40 53 0 6 -5 9 -12 7 -6 -3 -18 2 -25 11 -7 8 -17 15 -23 15 -6 0 -19
8 -29 17 -13 11 -22 13 -29 6 -7 -7 0 -17 23 -33 29 -19 23 -20 -21 -2 -9 3
-12 1 -7 -6 5 -8 -1 -12 -18 -12 -14 0 -28 5 -31 10 -4 6 5 10 20 10 20 0 25
4 21 18 -7 23 76 86 92 70 8 -8 15 4 25 38 10 34 20 49 31 48 18 -2 19 2 6 31
-8 18 -9 19 -9 1 -1 -12 -6 -16 -16 -12 -10 3 -15 -1 -15 -13 0 -11 -10 -22
-22 -26 -53 -16 -108 -13 -108 5 0 5 7 7 15 4 8 -4 17 1 21 10 3 9 12 16 20
16 8 0 11 -6 8 -15 -4 -9 0 -15 10 -15 9 0 16 5 16 10 0 6 5 9 12 8 6 -2 14 5
16 15 3 14 -4 17 -40 18 -43 1 -43 1 -13 11 36 13 31 8 40 36 5 19 3 23 -12
20 -23 -4 -31 37 -9 45 15 6 38 -10 54 -39 11 -21 62 -2 62 23 -1 17 -1 17
-14 1 -14 -19 -32 -25 -21 -8 3 6 -3 10 -14 10 -27 0 -27 17 -1 25 11 3 20 13
20 21 0 11 -4 12 -19 4 -44 -23 -88 3 -60 36 13 16 4 34 -19 35 -14 0 -13 2 3
9 35 15 55 12 48 -7 -6 -16 -5 -16 10 -4 9 7 17 22 17 32 0 16 8 19 50 19 33
0 50 4 50 13 0 6 13 12 30 13 17 1 30 -2 30 -5 0 -9 -62 -34 -77 -32 -6 1 0
-12 15 -29 14 -16 32 -30 39 -30 6 0 15 -5 18 -11 5 -7 -5 -8 -29 -4 -22 5
-36 3 -36 -3 0 -6 5 -12 11 -14 8 -3 6 -10 -5 -20 -26 -27 -20 -41 14 -34 22
4 30 2 30 -9 0 -8 7 -15 16 -15 11 0 14 6 9 20 -4 11 -2 20 4 20 6 0 11 7 11
15 0 13 -3 13 -20 3 -14 -9 -23 -9 -30 -2 -8 8 -2 15 20 24 23 9 34 10 39 2 3
-6 19 -9 34 -8 32 4 37 -19 6 -27 -33 -9 -17 -32 19 -29 18 2 32 -1 32 -7 0
-6 -13 -11 -30 -11 -33 0 -42 -23 -13 -34 15 -6 15 -8 3 -16 -9 -5 -20 -4 -28
3 -8 6 -26 13 -39 15 -22 3 -25 0 -20 -20 9 -36 -51 -70 -81 -46 -9 8 -16 8
-24 0 -8 -8 -2 -15 23 -25 24 -10 36 -11 41 -3 4 6 10 3 14 -9 5 -11 3 -20 -3
-22 -6 -2 -21 -13 -34 -24 -33 -29 0 -24 41 6 19 14 40 25 47 25 18 0 16 -20
-2 -25 -8 -3 -22 -7 -31 -10 -13 -4 -14 -8 -5 -19 12 -14 50 -11 52 5 1 5 3
14 4 19 1 6 3 15 4 20 0 6 15 10 32 10 24 0 30 -4 25 -15 -8 -23 17 -18 33 6
11 19 11 21 -2 16 -8 -3 -23 3 -33 14 -9 10 -22 19 -29 19 -16 0 -50 38 -42
46 4 4 18 -1 32 -10 22 -14 25 -15 25 -1 0 16 12 20 23 8 4 -3 2 -12 -4 -19
-7 -9 -6 -12 3 -10 60 10 75 38 25 44 -30 4 -36 28 -9 36 11 4 19 17 20 37 1
18 5 36 8 40 8 14 24 10 24 -5 0 -20 11 -25 35 -16 19 8 19 8 -3 17 -21 8 -22
11 -9 22 13 10 19 9 37 -9 12 -12 22 -30 23 -41 1 -11 5 -15 10 -10 5 5 5 17
-1 28 -8 15 -7 22 8 31 12 7 21 8 25 2 3 -6 11 -10 18 -10 25 0 -13 23 -40 24
-15 1 -34 5 -41 10 -8 4 -22 2 -36 -7 -21 -14 -22 -14 -21 6 1 11 7 23 13 25
7 2 12 11 12 19 0 9 6 13 15 10 8 -4 17 -2 20 4 9 14 -23 23 -38 11 -8 -7 -18
-7 -27 -2 -20 13 -43 13 -35 0 3 -5 15 -10 26 -10 12 0 17 -4 13 -11 -3 -6
-17 -8 -30 -5 -19 5 -24 3 -24 -14 0 -11 7 -23 15 -26 13 -5 22 -34 11 -34 -2
0 -11 -3 -20 -6 -12 -4 -16 0 -16 16 0 12 -9 33 -20 47 -11 14 -17 29 -14 34
3 5 0 9 -5 9 -6 0 -11 -5 -11 -11 0 -6 -6 -9 -13 -6 -6 2 -18 -1 -24 -8 -15
-17 5 -26 36 -18 16 4 21 1 21 -16 0 -11 -4 -21 -10 -21 -5 0 -10 4 -10 9 0 4
-8 8 -17 8 -35 0 -63 16 -63 34 0 11 -6 19 -12 19 -24 0 16 20 40 20 13 0 20
4 17 10 -3 6 4 10 17 10 18 0 20 2 8 10 -13 8 -13 10 2 10 23 0 34 -20 17 -31
-11 -7 -11 -9 3 -9 9 0 20 -9 23 -21 7 -22 17 -19 21 6 1 8 -3 15 -9 16 -7 0
-1 5 13 11 21 9 22 12 8 15 -10 3 -18 9 -18 14 0 5 -5 9 -11 9 -5 0 -7 -6 -3
-12 5 -9 2 -8 -9 1 -10 8 -31 14 -48 13 -18 0 -27 3 -23 10 4 6 21 8 39 5 18
-3 44 1 59 8 24 13 38 4 16 -10 -14 -9 -2 -25 18 -25 13 0 14 2 4 9 -12 7 -12
12 -1 30 8 11 17 21 22 21 4 0 5 -4 2 -10 -4 -6 6 -10 24 -10 24 0 29 -3 24
-16 -4 -12 -2 -15 8 -12 8 3 14 15 13 27 -1 22 15 30 17 9 1 -7 2 -17 4 -23 1
-5 3 -18 3 -29 2 -15 5 -16 17 -6 12 10 15 10 15 -1 1 -10 5 -9 14 4 8 10 17
14 20 8 3 -5 20 -12 37 -16 16 -4 28 -12 27 -17 -5 -15 -113 -14 -132 1 -13
11 -15 8 -13 -22 l2 -34 32 13 c22 10 34 11 39 3 4 -8 9 -8 17 0 6 6 19 11 30
11 14 0 17 -5 12 -20 -7 -23 21 -71 39 -64 14 5 30 -22 21 -35 -2 -5 7 -6 21
-3 14 2 28 11 31 18 3 8 8 12 12 10 3 -2 16 7 29 20 12 13 20 24 16 24 -10 0
-69 -34 -72 -42 -7 -16 -18 -7 -20 18 -2 22 1 24 19 19 15 -5 19 -4 15 4 -4 6
-13 11 -21 11 -17 0 -29 50 -16 63 8 8 11 5 12 -8 1 -11 1 -23 0 -27 0 -5 7
-8 17 -8 10 0 23 -5 30 -12 8 -8 15 -8 26 2 21 17 9 33 -20 27 -21 -4 -23 -1
-18 19 4 13 2 24 -3 24 -5 0 -9 10 -9 23 1 16 -5 23 -22 25 -13 2 -26 10 -29
18 -3 8 -12 14 -20 14 -8 0 -21 7 -29 15 -13 12 -13 15 -2 15 8 0 20 -6 27
-12 11 -11 13 -10 9 2 -5 17 -78 27 -78 11 0 -5 -8 -12 -17 -14 -11 -3 -7 -5
10 -6 52 -2 21 -49 -37 -55 -15 -2 -22 3 -23 16 -1 14 5 18 29 18 17 0 29 3
26 6 -10 10 -101 12 -125 3 -13 -5 -23 -5 -23 0 0 12 36 21 83 21 22 0 36 4
32 9 -3 6 11 13 32 16 21 4 43 8 48 9 6 2 14 1 20 -2 5 -3 24 -5 42 -4z m113
2 c0 -5 -4 -10 -10 -10 -5 0 -10 5 -10 10 0 6 5 10 10 10 6 0 10 -4 10 -10z
m-146 -86 c9 -24 7 -34 -6 -34 -23 0 -39 16 -32 33 8 21 30 22 38 1z m603 10
c-3 -3 -12 -4 -19 -1 -8 3 -5 6 6 6 11 1 17 -2 13 -5z m23 -28 c0 -3 -4 -8
-10 -11 -5 -3 -10 -1 -10 4 0 6 5 11 10 11 6 0 10 -2 10 -4z m-392 -65 c3 -24
0 -32 -10 -29 -7 3 -13 19 -13 36 0 42 19 35 23 -7z m572 18 c0 -14 -27 -10
-33 5 -4 10 0 12 14 9 10 -3 19 -9 19 -14z m-432 -34 c0 -13 -4 -22 -9 -19 -5
3 -9 14 -9 25 0 10 4 19 9 19 5 0 9 -11 9 -25z m-353 7 c17 -12 11 -56 -8 -60
-19 -4 -22 9 -6 25 8 8 8 13 0 17 -12 8 -15 26 -3 26 4 0 12 -4 17 -8z m843
-14 c8 -10 2 -13 -23 -14 -23 0 -32 3 -28 13 6 17 37 17 51 1z m-1564 -14 c9
-3 16 -12 16 -20 0 -19 -10 -18 -26 4 -8 10 -13 12 -14 5 0 -7 -9 -13 -20 -13
-17 0 -19 2 -8 15 14 16 28 18 52 9z m1613 0 c-3 -3 -12 -4 -19 -1 -8 3 -5 6
6 6 11 1 17 -2 13 -5z m-1658 -45 c4 6 18 8 31 5 14 -3 34 -7 44 -8 11 -1 21
-7 23 -13 3 -7 -22 -14 -64 -18 -114 -10 -136 -17 -140 -44 -3 -23 -3 -24 16
-7 10 9 40 20 67 24 73 11 89 9 88 -10 -1 -10 2 -18 6 -18 17 0 -7 -55 -26
-58 -23 -5 -44 -22 -26 -22 7 0 12 -4 12 -10 0 -5 -6 -10 -14 -10 -17 0 -32
33 -17 38 5 2 8 9 5 17 -3 7 3 15 13 18 10 3 -5 5 -34 6 -69 1 -84 -21 -57
-85 8 -19 12 -40 8 -46 -5 -7 4 -9 25 -6 39 6 39 3 -1 -16 -21 -11 -34 -13
-38 -6 -4 6 -18 11 -31 11 -46 1 -69 9 -69 24 0 19 9 19 32 -2 16 -15 18 -15
18 0 0 11 5 14 16 10 12 -4 15 -2 12 8 -3 8 -16 13 -31 11 -14 -1 -28 2 -32 8
-3 5 1 10 9 10 14 0 18 10 15 37 0 4 9 10 20 15 12 4 21 12 21 18 0 13 -77 13
-85 0 -10 -16 -25 -12 -19 5 4 8 19 15 35 15 20 0 33 8 46 30 9 17 25 30 34
30 9 0 30 7 45 15 16 8 23 15 17 15 -7 0 -13 7 -13 16 0 14 2 14 16 -1 11 -11
19 -13 23 -6z m-151 -136 c-2 -9 -8 -18 -15 -20 -9 -3 -11 11 -4 35 1 1 6 2
12 2 6 0 9 -8 7 -17z m-50 -14 c-10 -5 -18 -15 -18 -20 0 -6 6 -7 13 -3 9 5 9
4 1 -5 -8 -9 -20 -8 -48 4 -46 20 -53 16 -25 -14 18 -19 19 -25 8 -32 -9 -5
-16 -2 -21 10 -4 11 -12 22 -18 26 -8 5 -8 11 1 21 13 16 74 20 64 4 -3 -5 -1
-10 4 -10 6 0 11 7 11 15 0 9 9 15 23 15 20 -1 20 -2 5 -11z m170 -1 c-7 -19
-38 -22 -38 -4 0 10 9 16 21 16 12 0 19 -5 17 -12z m28 -50 c4 -6 0 -14 -7
-19 -21 -13 -29 -11 -23 6 4 8 1 15 -5 15 -6 0 -11 4 -11 9 0 11 38 2 46 -11z
m1901 16 c-3 -3 -12 -4 -19 -1 -8 3 -5 6 6 6 11 1 17 -2 13 -5z m-2122 -46
c-21 -10 -39 -17 -41 -15 -8 7 59 46 69 40 4 -3 -8 -14 -28 -25z m590 22 c3
-5 1 -10 -4 -10 -6 0 -11 5 -11 10 0 6 2 10 4 10 3 0 8 -4 11 -10z m-671 -26
c9 -24 7 -36 -4 -29 -6 4 -8 11 -5 16 4 5 -3 9 -13 9 -13 0 -21 -9 -24 -24 -4
-20 1 -28 26 -40 23 -11 32 -12 38 -3 6 9 8 9 8 0 0 -7 12 -13 27 -13 55 0 11
-12 -67 -19 -13 -1 -13 -2 0 -11 8 -6 33 -8 55 -5 31 3 34 2 15 -4 -14 -5 -37
-9 -53 -10 -23 -1 -28 4 -33 29 -5 20 -12 30 -25 30 -10 0 -21 5 -24 10 -3 6
-2 10 4 10 5 0 8 8 7 18 -7 42 53 74 68 36z m106 -38 c0 -2 -9 -2 -20 1 -11 3
-20 9 -20 15 0 5 9 4 20 -2 11 -6 20 -12 20 -14z m310 15 c0 -6 -4 -13 -10
-16 -5 -3 -10 -1 -10 4 0 6 -4 11 -8 11 -5 0 -8 -10 -8 -22 1 -13 -6 -24 -16
-26 -13 -2 -15 2 -11 20 4 13 11 26 17 30 16 11 46 10 46 -1z m1952 -32 c-10
-4 -19 -2 -20 2 -2 5 -8 7 -13 3 -5 -3 -9 0 -9 5 0 6 5 11 11 11 5 0 7 5 3 12
-4 6 4 3 18 -8 22 -16 24 -20 10 -25z m-252 11 c-8 -5 -17 -7 -19 -4 -3 3 1 9
9 14 8 5 17 7 19 4 3 -3 -1 -9 -9 -14z m-2130 0 c0 -5 -4 -10 -10 -10 -5 0
-10 5 -10 10 0 6 5 10 10 10 6 0 10 -4 10 -10z m80 0 c12 -8 11 -10 -7 -10
-12 0 -25 5 -28 10 -8 13 15 13 35 0z m216 -26 c-3 -8 -10 -13 -16 -9 -6 4 -5
13 3 26 13 21 23 8 13 -17z m56 14 c-6 -6 -16 -7 -22 -3 -9 6 -9 9 1 16 17 10
34 0 21 -13z m-122 -8 c0 -17 9 -24 31 -22 3 1 6 -5 6 -13 0 -11 -5 -12 -21
-3 -33 17 -51 58 -26 58 6 0 10 -9 10 -20z m-30 -15 c0 -8 -4 -15 -10 -15 -5
0 -10 7 -10 15 0 8 5 15 10 15 6 0 10 -7 10 -15z m1188 1 c-7 -8 -21 -23 -30
-35 -10 -11 -26 -21 -35 -20 -14 0 -13 2 5 9 28 12 29 24 1 15 -15 -5 -19 -4
-15 4 4 6 18 11 32 11 13 0 23 3 23 8 -3 16 2 22 17 22 13 0 13 -2 2 -14z
m536 -1 c3 -8 1 -15 -4 -15 -6 0 -10 7 -10 15 0 8 2 15 4 15 2 0 6 -7 10 -15z
m-1808 -20 c1 -8 -2 -13 -7 -9 -5 3 -9 12 -9 21 0 19 13 9 16 -12z m244 16 c0
-15 -28 -33 -40 -26 -8 5 -8 11 1 21 13 15 39 19 39 5z m1680 -6 c0 -17 -9
-19 -30 -5 -8 5 -19 5 -25 1 -5 -5 -20 -12 -33 -16 -22 -6 -22 -5 -10 14 16
26 98 31 98 6z m342 -3 c-12 -2 -20 -7 -17 -12 3 -5 16 -5 31 0 34 13 39 13
24 -5 -7 -8 -22 -15 -34 -15 -17 0 -18 -2 -6 -10 8 -5 11 -12 7 -16 -10 -10
-38 16 -30 30 3 6 -2 3 -13 -6 -10 -9 -32 -19 -49 -23 -27 -6 -28 -5 -10 6 19
12 19 12 0 19 -15 5 -8 10 28 21 26 7 47 16 47 20 0 4 10 4 23 1 l22 -7 -23
-3z m-2222 -2 c0 -5 -2 -10 -4 -10 -3 0 -8 5 -11 10 -3 6 -1 10 4 10 6 0 11
-4 11 -10z m2125 0 c3 -5 1 -10 -4 -10 -6 0 -11 5 -11 10 0 6 2 10 4 10 3 0 8
-4 11 -10z m-2050 -40 c9 -15 27 -12 20 3 -4 6 0 3 9 -8 8 -11 22 -27 31 -36
15 -15 11 -16 -44 -15 -38 2 -67 8 -78 18 -10 9 -28 19 -40 22 -13 4 -23 12
-23 17 0 6 7 6 19 -1 11 -5 30 -10 43 -10 13 0 33 -7 44 -15 22 -17 54 -20 54
-4 0 5 -5 7 -12 3 -6 -4 -16 0 -22 8 -6 8 -19 17 -28 21 -10 3 -18 11 -18 17
0 12 35 -3 45 -20z m60 10 c3 -5 1 -10 -4 -10 -6 0 -11 5 -11 10 0 6 2 10 4
10 3 0 8 -4 11 -10z m2142 -2 c-2 -7 -9 -12 -15 -11 -6 2 -9 -4 -6 -12 4 -8 1
-15 -5 -15 -15 0 -14 23 1 38 16 16 31 15 25 0z m-2260 -4 c-3 -3 -12 -4 -19
-1 -8 3 -5 6 6 6 11 1 17 -2 13 -5z m2083 -27 c0 -17 29 -43 55 -50 11 -2 1
-5 -22 -6 -28 -1 -43 3 -44 12 0 6 -5 0 -11 -15 -12 -34 -58 -37 -58 -3 0 14
3 16 8 7 5 -7 16 -10 25 -6 9 3 15 10 12 14 -3 5 -1 11 4 14 5 3 7 15 4 26 -4
14 0 20 11 20 9 0 16 -6 16 -13z m95 3 c3 -5 -1 -10 -10 -10 -9 0 -13 5 -10
10 3 6 8 10 10 10 2 0 7 -4 10 -10z m-1875 -42 c0 -14 -17 -8 -35 12 -17 19
-17 19 9 7 14 -7 26 -15 26 -19z m1878 16 c4 3 14 0 22 -5 11 -7 4 -9 -25 -8
-47 3 -57 7 -50 20 4 5 14 5 26 -1 11 -6 23 -9 27 -6z m-488 -67 c19 -1 46 2
60 6 14 4 7 -2 -15 -13 -37 -19 -45 -20 -107 -9 -74 13 -84 26 -16 21 24 -2
59 -4 78 -5z m-157 -28 c-4 -15 -8 -17 -14 -8 -8 14 -3 29 11 29 4 0 6 -9 3
-21z m-23 -9 c0 -5 -4 -10 -10 -10 -5 0 -22 -14 -37 -30 -15 -17 -33 -28 -40
-26 -7 3 -13 1 -13 -5 0 -6 -4 -8 -9 -4 -6 3 -25 -4 -43 -15 -18 -11 -42 -19
-53 -19 -17 1 -16 2 5 9 l25 8 -26 1 c-35 1 -78 -20 -85 -44 -8 -25 -26 -37
-35 -23 -9 15 0 38 16 38 6 0 20 9 30 20 10 11 24 20 31 20 8 0 28 9 45 19 22
14 38 17 49 11 19 -10 60 -2 60 11 0 5 5 9 11 9 6 0 22 9 36 20 28 22 43 25
43 10z m-406 -106 c4 -11 -1 -22 -13 -31 -26 -18 -24 -55 2 -47 13 4 17 2 13
-5 -9 -14 19 -14 44 -1 11 6 17 17 14 25 -4 8 -2 15 4 15 13 0 26 -34 14 -38
-43 -14 -125 -80 -142 -113 -24 -45 -28 -48 -26 -15 0 13 4 22 9 19 8 -5 22
25 15 33 -3 2 -17 0 -32 -5 -20 -8 -26 -7 -26 3 0 20 12 27 26 15 8 -7 14 -7
19 1 3 5 -1 13 -9 16 -20 8 -11 24 14 24 13 0 17 7 16 25 -1 32 -33 35 -32 4
1 -12 -5 -24 -13 -27 -11 -4 -12 2 -7 23 6 24 5 27 -7 17 -8 -7 -12 -23 -9
-41 2 -16 0 -31 -5 -34 -5 -4 -10 -1 -10 6 0 7 -3 24 -6 39 -4 15 -3 30 3 33
5 3 10 16 10 28 0 13 3 17 8 11 4 -6 14 -11 22 -11 9 0 28 -3 43 -7 17 -4 27
-2 27 4 0 6 -4 9 -9 5 -5 -3 -12 -1 -16 5 -3 5 0 10 8 10 8 0 17 7 21 15 7 20
22 19 30 -1z m46 -62 c0 -13 -12 -22 -22 -16 -10 6 -1 24 13 24 5 0 9 -4 9 -8z
m-330 -23 c0 -5 -4 -9 -10 -9 -5 0 -10 7 -10 16 0 8 5 12 10 9 6 -3 10 -10 10
-16z m125 -45 c-2 -35 -26 -65 -33 -43 -4 9 25 79 33 79 2 0 2 -16 0 -36z
m-42 -76 c9 0 17 -4 17 -10 0 -6 9 -3 20 7 11 10 20 13 20 7 0 -7 -4 -12 -10
-12 -5 0 -10 -10 -10 -21 0 -18 -2 -20 -16 -8 -14 11 -15 9 -12 -21 4 -39 -17
-53 -24 -16 -3 14 -1 27 4 28 11 4 -1 38 -13 38 -5 0 -9 -9 -9 -20 0 -11 -4
-20 -10 -20 -5 0 -7 7 -4 15 5 11 -1 15 -22 16 -18 1 -22 3 -11 6 9 2 14 9 11
15 -5 8 2 8 22 3 16 -4 37 -7 47 -7z m86 -40 c-7 -12 -12 -29 -11 -35 2 -7 -2
-13 -7 -13 -15 0 -7 60 10 70 20 13 22 5 8 -22z m-174 4 c6 -4 12 -25 14 -47
1 -22 7 -42 12 -45 10 -7 0 -50 -12 -50 -5 0 -9 21 -9 48 0 26 -7 59 -14 75
-15 26 -11 34 9 19z m200 -19 c-4 -10 -10 -51 -13 -91 -2 -40 -9 -75 -15 -79
-7 -4 -8 7 -4 31 4 23 1 46 -6 58 -9 16 -9 22 0 25 7 2 15 20 19 39 3 19 11
34 16 34 6 0 7 -8 3 -17z m-140 -13 c-3 -5 -13 -10 -21 -10 -8 0 -14 5 -14 10
0 6 9 10 21 10 11 0 17 -4 14 -10z m56 -59 c-11 -7 -10 -11 5 -19 10 -6 16
-14 11 -18 -4 -4 -16 1 -27 11 -17 16 -20 16 -20 2 0 -9 5 -19 11 -23 8 -4 7
-9 -2 -15 -22 -14 -26 -11 -21 21 4 29 39 66 51 54 3 -3 -1 -9 -8 -13z m-77
-110 c4 -25 12 -40 24 -43 11 -3 18 -15 19 -34 l2 -29 -10 26 c-8 20 -15 26
-30 22 -13 -4 -18 -11 -15 -20 3 -8 6 -19 6 -24 0 -5 7 -9 15 -9 8 0 15 -6 15
-14 0 -8 3 -23 6 -33 5 -17 5 -17 -9 0 -14 17 -16 15 -25 -20 l-10 -38 -1 37
c-1 20 4 40 9 43 6 4 4 12 -5 21 -10 11 -15 36 -15 85 0 75 14 93 24 30z m116
19 c0 -5 -4 -10 -10 -10 -5 0 -10 5 -10 10 0 6 5 10 10 10 6 0 10 -4 10 -10z
m-70 -14 c0 -9 -30 -14 -35 -6 -4 6 3 10 14 10 12 0 21 -2 21 -4z m30 -6 c0
-5 -4 -10 -10 -10 -5 0 -10 5 -10 10 0 6 5 10 10 10 6 0 10 -4 10 -10z m25
-40 c3 -5 14 -10 24 -10 14 0 20 -11 25 -46 3 -26 6 -54 5 -63 -1 -24 -21 41
-20 66 1 18 -8 25 -39 34 -22 7 -37 16 -34 20 7 12 31 11 39 -1z m11 -80 c8 0
14 -8 14 -18 0 -15 -6 -17 -35 -14 -41 5 -40 4 -18 39 15 22 19 24 21 10 2 -9
10 -17 18 -17z m4 -70 c0 -11 -5 -20 -11 -20 -5 0 -8 4 -4 9 3 6 -3 14 -12 20
-16 9 -16 10 5 11 15 0 22 -6 22 -20z m50 -9 c0 -11 -4 -23 -10 -26 -6 -4 -10
5 -10 19 0 14 5 26 10 26 6 0 10 -9 10 -19z m-122 -9 c2 -7 -2 -10 -12 -6 -9
3 -16 11 -16 16 0 13 23 5 28 -10z m-52 -74 c-4 -45 -3 -57 4 -43 8 16 9 13 4
-12 -6 -38 2 -44 16 -10 8 20 9 19 8 -8 -2 -36 8 -55 27 -55 9 0 12 8 10 20
-3 13 2 23 13 26 9 3 24 9 33 14 9 4 21 5 28 1 8 -5 0 -14 -26 -26 -21 -10
-32 -20 -25 -23 8 -2 19 1 25 7 16 16 47 14 47 -4 0 -18 -16 -20 -26 -4 -4 8
-9 7 -15 -2 -5 -9 -31 -14 -71 -15 -35 -1 -63 -3 -63 -4 0 -1 -17 -4 -37 -5
-29 -3 -38 0 -38 11 0 8 -4 12 -10 9 -5 -3 -10 -1 -10 6 0 8 -4 8 -15 -1 -18
-15 -19 -30 -2 -30 7 0 18 -9 25 -20 7 -11 19 -20 28 -20 13 0 14 3 5 14 -9
10 -8 15 3 19 9 4 20 -1 25 -11 6 -10 11 -12 11 -4 0 7 13 12 30 12 28 0 30
-2 20 -20 -8 -15 -8 -20 3 -20 7 0 18 5 24 11 8 8 16 7 30 -2 22 -13 58 -5 48
11 -3 5 -18 10 -33 10 -15 0 -33 4 -41 9 -8 6 3 7 30 4 24 -3 62 -1 84 4 22 5
52 6 68 2 15 -4 27 -4 28 -1 0 4 2 15 4 25 2 9 -2 17 -8 17 -5 0 -8 2 -6 5 3
2 23 -2 44 -10 27 -10 33 -14 18 -15 -12 0 -25 -4 -28 -10 -3 -5 0 -7 8 -4 8
3 20 -2 27 -11 7 -9 8 -15 2 -15 -6 0 -13 6 -15 13 -3 7 -6 5 -6 -5 -1 -10 6
-18 15 -18 8 0 12 -4 9 -10 -3 -5 1 -10 9 -10 9 0 15 3 14 8 -2 4 2 7 7 7 6 0
9 -3 8 -6 -1 -3 12 -3 28 -1 37 5 25 20 -19 24 -17 1 -32 6 -32 11 0 13 95 -1
168 -24 34 -12 62 -23 62 -25 0 -2 -14 -4 -31 -4 -17 0 -28 4 -24 10 4 6 -5
10 -20 10 -15 0 -34 4 -44 9 -12 7 -18 6 -18 -3 0 -6 14 -13 31 -14 16 -2 32
-5 34 -7 3 -2 -188 -4 -424 -3 -236 0 -421 3 -412 5 9 2 20 13 23 24 8 25 47
34 86 20 39 -13 39 -13 39 0 0 5 -3 8 -7 6 -5 -3 -14 1 -20 8 -10 11 -4 15 35
21 26 3 52 10 58 15 16 13 53 -1 47 -17 -3 -8 0 -14 6 -14 6 0 11 5 11 10 0 6
7 10 15 10 8 0 15 6 15 14 0 8 6 17 13 19 6 3 1 6 -13 7 -23 1 -24 2 -7 14 10
8 17 27 17 47 0 37 9 79 17 79 3 0 2 -28 -1 -62z m165 4 c-8 -25 -5 -35 12
-55 12 -14 29 -26 37 -29 9 -3 10 -7 3 -11 -6 -4 -30 11 -53 33 -23 22 -49 40
-56 40 -8 0 -13 6 -11 13 1 6 -4 11 -10 10 -7 -2 -13 4 -13 12 0 24 38 18 42
-7 4 -27 28 -36 28 -11 0 17 20 47 27 40 1 -2 -1 -17 -6 -35z m-221 -92 c0 -5
-4 -10 -10 -10 -5 0 -10 5 -10 10 0 6 5 10 10 10 6 0 10 -4 10 -10z m299 -36
c2 -2 -7 -4 -22 -4 -14 0 -29 5 -32 10 -6 10 42 4 54 -6z m-122 -20 c-3 -3
-12 -4 -19 -1 -8 3 -5 6 6 6 11 1 17 -2 13 -5z m-447 -30 c0 -8 -4 -12 -10 -9
-5 3 -10 10 -10 16 0 5 5 9 10 9 6 0 10 -7 10 -16z m-30 -4 c0 -5 -4 -10 -10
-10 -5 0 -10 5 -10 10 0 6 5 10 10 10 6 0 10 -4 10 -10z m-140 -20 c0 -5 -19
-9 -42 -9 l-43 2 40 7 c22 4 41 8 43 9 1 0 2 -3 2 -9z m135 -5 c6 -2 -18 -4
-52 -4 -34 -1 -64 3 -67 7 -5 8 96 5 119 -3z m-337 -810 c-2 -25 0 -45 4 -45
5 0 8 -13 8 -30 0 -16 -4 -30 -10 -30 -5 0 -10 7 -10 15 0 9 -7 29 -15 45 -20
39 -64 50 -197 50 l-108 0 0 -160 0 -160 68 0 c37 0 91 3 120 7 48 5 54 9 67
39 8 19 18 34 22 34 4 0 7 -45 5 -100 -2 -59 -7 -98 -13 -95 -5 4 -9 13 -9 21
0 8 -11 26 -25 39 -22 23 -31 25 -127 25 -75 0 -99 3 -88 11 13 9 13 10 0 6
-12 -3 -16 -35 -20 -185 -3 -100 -2 -183 2 -185 4 -1 65 0 135 3 120 5 130 7
164 32 20 16 39 25 44 20 5 -4 5 -2 2 4 -7 13 27 63 37 54 2 -3 -4 -32 -15
-64 -10 -33 -19 -65 -19 -72 0 -10 -53 -13 -260 -13 -155 0 -260 4 -260 10 0
5 9 9 20 9 11 0 29 9 40 20 19 19 20 33 20 339 0 201 -4 329 -11 349 -7 22
-19 33 -40 37 -68 15 -6 20 226 17 l247 -3 -4 -44z m3146 44 c78 -1 104 -3 88
-10 -13 -5 -28 -7 -33 -3 -5 3 -9 1 -9 -4 0 -6 -11 -13 -25 -16 -24 -6 -27
-26 -4 -26 6 0 7 5 4 10 -3 6 -3 10 2 10 4 0 7 -145 5 -322 -2 -178 0 -337 3
-355 4 -23 13 -34 35 -42 35 -12 40 -29 8 -25 -13 1 -70 3 -128 4 -99 2 -103
2 -73 16 18 7 37 23 43 34 7 13 9 128 7 352 -4 344 -5 360 -18 352 -4 -2 -10
0 -14 6 -3 5 -15 10 -26 10 -12 0 -17 4 -14 11 4 6 14 8 23 4 9 -3 66 -6 126
-6z m531 -32 c11 -18 33 -50 50 -73 16 -22 62 -84 100 -138 39 -53 114 -153
167 -222 53 -69 99 -131 101 -137 11 -29 12 15 7 268 -5 280 -11 315 -50 315
-8 0 -22 5 -30 10 -10 7 22 9 100 9 112 -1 114 -1 78 -16 -54 -23 -58 -50 -58
-437 0 -374 1 -372 -63 -293 -134 165 -474 635 -469 649 1 4 -2 8 -8 8 -5 0
-10 -6 -10 -12 -4 -155 3 -574 10 -603 6 -25 6 -41 0 -43 -15 -6 -12 -19 5
-19 8 0 12 4 9 9 -7 10 -3 10 35 -3 51 -18 22 -24 -90 -21 l-103 3 39 22 c26
15 41 32 47 52 4 17 8 153 7 302 0 150 3 277 6 283 3 5 1 10 -4 10 -6 0 -11
11 -11 25 0 34 -28 75 -51 75 -11 0 -19 3 -19 8 0 4 42 6 93 4 93 -3 94 -3
112 -35z m1108 28 c43 -8 51 -21 60 -102 7 -61 -3 -69 -21 -18 -26 70 -110
112 -206 101 -28 -3 -59 -6 -68 -6 -10 -1 -17 -4 -16 -8 1 -4 -6 -21 -15 -39
-21 -39 -22 -85 -2 -122 16 -33 84 -79 203 -141 57 -30 82 -47 80 -59 -2 -10
3 -15 15 -13 45 8 75 -162 43 -240 -21 -49 -96 -114 -148 -128 -58 -16 -175
-8 -224 16 -37 18 -39 22 -53 92 -11 59 -11 76 -1 85 10 10 12 6 8 -15 -3 -15
-2 -25 2 -23 4 2 14 -11 23 -29 9 -19 33 -47 53 -63 35 -26 44 -28 125 -28 84
0 89 1 120 30 45 43 59 81 49 135 -10 55 -55 98 -157 150 -84 43 -115 65 -105
75 4 5 1 5 -6 1 -20 -12 -81 62 -97 117 -24 81 6 169 71 212 22 14 28 15 35 4
7 -11 9 -11 9 -1 0 7 10 16 23 21 25 10 142 7 200 -4z m-7579 -7 c-6 -10 -4
-10 7 0 7 6 27 12 44 11 l30 -1 -34 -12 c-19 -7 -38 -21 -42 -32 -4 -10 -8
-171 -8 -357 l-1 -339 119 4 c106 3 123 6 150 26 17 13 36 20 41 17 6 -4 7 1
3 11 -4 12 -3 15 5 10 8 -5 10 -2 6 8 -3 9 -1 16 5 16 6 0 11 7 11 15 0 8 4
15 8 15 4 0 1 -36 -8 -80 l-15 -80 -253 0 c-166 0 -251 3 -247 10 3 6 14 10
24 10 10 0 26 9 37 21 18 20 19 43 22 329 2 169 -1 322 -5 341 -6 24 -19 39
-43 51 l-35 18 93 0 c72 0 92 -3 86 -12z m760 0 c-3 -4 -11 -8 -17 -8 -7 0
-22 -8 -34 -18 -22 -17 -22 -22 -24 -277 -2 -246 -1 -263 19 -313 25 -60 26
-66 12 -57 -5 3 -10 1 -10 -5 0 -7 7 -9 16 -6 8 3 25 -3 37 -15 12 -12 32 -25
45 -30 36 -14 156 -11 194 5 46 20 96 72 110 115 12 41 24 469 13 536 -5 37
-11 46 -40 60 -19 9 -35 18 -35 20 0 2 47 3 105 3 101 -1 118 -7 66 -23 -14
-4 -21 -3 -18 2 4 5 -1 10 -9 10 -10 0 -11 -4 -5 -10 7 -7 7 -15 -2 -25 -8
-11 -13 -95 -17 -296 -5 -260 -7 -284 -25 -316 -44 -74 -153 -130 -255 -130
-50 0 -154 24 -173 40 -7 6 -25 20 -40 31 -15 12 -40 44 -55 72 l-27 52 -5
271 c-5 277 -9 304 -46 304 -7 0 -15 3 -17 8 -3 4 51 7 118 8 68 0 122 -3 119
-8z m889 -4 c-18 -8 -33 -17 -33 -22 1 -12 114 -206 142 -241 10 -14 29 -26
41 -28 17 -2 19 -1 7 7 -14 9 -13 11 9 14 5 0 13 5 18 10 5 5 3 6 -4 2 -19
-10 -16 4 7 42 11 18 24 30 29 27 5 -3 13 0 17 6 4 8 3 9 -4 5 -19 -11 -14 3
19 60 34 60 35 94 2 109 -43 19 -22 25 77 24 98 -2 125 -10 74 -23 -36 -9 -70
-48 -144 -165 -36 -57 -75 -115 -87 -130 l-21 -27 49 -82 c28 -45 47 -87 44
-92 -3 -6 0 -10 7 -10 15 0 102 -134 104 -159 2 -27 16 -61 25 -61 14 0 11 16
-6 30 -8 7 -15 17 -15 23 0 6 15 -6 34 -26 18 -20 41 -37 49 -37 9 0 19 -4 22
-10 4 -6 -42 -10 -130 -10 -75 0 -134 4 -131 9 3 4 16 8 28 7 15 -1 25 6 29
19 7 23 -8 57 -58 131 -21 33 -31 58 -27 70 4 13 3 15 -3 6 -7 -9 -19 2 -43
40 -18 29 -35 55 -36 56 -7 9 -42 -11 -46 -26 -7 -26 -99 -164 -105 -158 -3 3
0 12 7 21 7 9 10 18 7 21 -10 10 -38 -43 -31 -60 3 -9 2 -22 -3 -29 -30 -38
-20 -87 18 -87 11 0 19 -4 19 -10 0 -6 -44 -10 -111 -10 -71 0 -108 4 -104 10
3 6 14 10 24 10 30 0 64 34 135 134 38 53 72 94 76 91 5 -3 12 0 16 6 4 8 3 9
-4 5 -25 -15 -10 16 34 69 l46 57 -26 37 c-28 39 -33 57 -15 45 8 -4 8 0 0 15
-13 24 -23 28 -15 6 13 -34 -8 -10 -65 75 -34 49 -61 94 -61 100 0 5 -3 10 -7
10 -5 0 -19 18 -32 39 -13 21 -38 46 -55 54 -30 15 -25 16 104 16 125 -1 133
-2 103 -15z m1985 -4 c2 -6 11 -10 20 -9 11 0 12 2 5 6 -66 26 124 33 203 7
89 -30 134 -91 134 -182 0 -63 -36 -137 -67 -138 -15 -1 -23 4 -23 15 0 9 -6
4 -15 -13 -18 -34 -18 -36 -5 -36 6 0 10 6 10 13 0 8 7 14 15 14 30 0 8 -22
-50 -51 -65 -33 -144 -39 -185 -16 -24 14 -23 15 37 21 52 5 70 12 107 43 94
76 87 226 -13 293 -35 24 -87 29 -150 17 l-31 -6 0 -344 c0 -368 -1 -363 52
-380 43 -13 -7 -20 -117 -14 -102 5 -108 7 -78 19 17 7 35 20 40 29 4 9 9 164
10 343 3 314 2 327 -17 352 -11 14 -30 28 -43 31 -12 3 19 3 68 0 50 -2 92 -9
93 -14z m775 4 c-17 -7 -34 -21 -37 -31 -3 -10 -6 -172 -8 -360 -2 -189 -5
-343 -8 -343 -4 0 -11 5 -18 12 -7 7 -12 9 -12 5 0 -4 -10 -3 -22 4 -17 8 -15
4 7 -15 35 -30 39 -31 58 -12 10 10 48 16 128 20 119 5 150 8 144 14 -2 2 9
16 25 30 15 15 30 37 34 50 4 12 12 22 17 22 5 0 7 -10 4 -22 -3 -13 -10 -43
-16 -68 -5 -25 -11 -50 -11 -57 -1 -9 -62 -13 -240 -15 -131 -2 -246 0 -255 3
-13 4 -7 10 23 25 l39 19 2 355 2 355 -42 12 c-37 10 -28 11 88 11 119 0 127
-1 98 -14z m848 -1 c1 -10 1 -21 0 -25 0 -5 4 -8 9 -8 6 0 10 -5 10 -12 0 -6
21 -63 46 -127 25 -64 55 -138 65 -166 11 -27 24 -59 29 -70 5 -11 32 -79 60
-150 56 -147 71 -171 109 -188 24 -11 21 -12 -36 -15 -35 -2 -91 -2 -125 0
-59 3 -61 4 -35 15 15 7 27 18 27 25 0 7 -14 49 -31 93 -17 44 -35 91 -40 105
-10 27 -20 27 -247 17 -57 -2 -67 6 -24 21 17 7 21 11 10 11 -20 1 -58 -32
-58 -50 0 -6 -7 -26 -16 -45 -9 -18 -14 -39 -12 -46 3 -7 13 11 23 41 11 29
21 48 23 43 1 -5 -6 -31 -16 -58 -30 -77 -35 -119 -17 -138 9 -9 23 -16 31
-16 8 0 14 -4 14 -10 0 -6 -40 -10 -100 -10 -96 0 -131 11 -72 23 42 9 72 62
146 258 70 188 147 402 166 462 9 29 17 37 36 37 16 0 24 -6 25 -17z m-3889
-1214 c138 -2 138 -2 137 -69 0 -23 -1 -23 -14 7 -16 38 -29 42 -148 45 -91 3
-100 -1 -72 -38 14 -18 14 -18 10 4 -3 15 0 22 8 19 15 -5 22 -163 7 -172 -6
-3 -10 3 -10 16 0 13 -4 19 -8 14 -5 -6 -6 -37 -2 -70 6 -52 7 -55 9 -18 l1
42 82 3 c78 3 82 4 89 28 4 17 7 6 10 -38 2 -34 1 -62 -3 -62 -5 0 -8 9 -8 20
0 12 -9 24 -22 28 -27 10 -134 8 -130 -1 1 -4 2 -54 2 -112 0 -85 3 -105 14
-105 8 0 17 -4 20 -9 3 -4 -28 -8 -69 -8 -53 1 -70 4 -57 11 9 5 20 14 24 20
9 13 11 398 2 420 -3 9 -15 16 -26 16 -11 0 -16 5 -13 10 4 6 14 8 24 5 9 -3
74 -6 143 -6z m473 -2 c61 -2 75 -6 100 -30 25 -22 30 -35 29 -71 -1 -53 -30
-98 -59 -90 -16 4 -17 3 -6 -5 15 -10 5 -17 -54 -36 -18 -6 -18 -7 -3 -16 9
-5 46 -52 83 -104 36 -52 75 -101 87 -109 32 -22 17 -29 -36 -15 -48 12 -92
52 -131 120 -10 19 -31 55 -47 80 l-27 47 41 10 c23 6 47 8 52 5 6 -3 8 -2 3
2 -4 5 0 16 9 26 27 29 30 93 6 133 -12 20 -16 36 -10 38 5 2 -21 3 -59 3
l-68 0 -3 -215 c-2 -213 -2 -215 20 -232 22 -17 21 -18 -57 -17 -64 0 -76 2
-58 11 22 10 22 16 25 207 3 225 2 242 -23 248 -38 10 -8 19 53 16 35 -1 95
-4 133 -6z m473 -2 c3 -3 -4 -5 -15 -5 -12 0 -24 -7 -27 -16 -3 -9 -6 -109 -6
-224 l0 -208 28 -10 c21 -7 9 -9 -51 -8 -57 0 -73 3 -58 10 20 9 21 16 21 228
l0 218 -25 10 c-14 5 -25 11 -25 13 0 5 152 -2 158 -8z m517 -7 c21 -9 25 -18
25 -55 0 -27 -4 -42 -10 -38 -5 3 -10 12 -10 18 0 7 -11 24 -24 39 -14 14 -23
28 -20 30 2 3 -32 4 -75 4 -91 -1 -121 -16 -158 -82 -27 -47 -32 -167 -8 -233
34 -96 109 -153 182 -138 44 8 103 56 103 83 0 8 5 14 10 14 16 0 0 -73 -19
-87 -20 -15 -91 -33 -128 -33 -75 1 -159 51 -203 124 -35 57 -36 180 -2 244
24 45 97 105 147 122 36 11 154 4 190 -12z m1188 11 c35 -9 37 -12 36 -52 0
-33 -2 -38 -9 -21 -15 39 -59 64 -109 64 -62 0 -91 -21 -91 -66 0 -53 15 -71
88 -108 98 -50 122 -80 129 -157 6 -56 4 -62 -11 -56 -14 5 -16 3 -11 -12 4
-14 -2 -25 -22 -38 -40 -27 -80 -43 -108 -43 -39 0 -107 31 -101 46 3 7 1 16
-4 19 -6 4 -10 18 -9 33 l1 27 10 -27 c5 -16 14 -28 20 -28 6 0 7 -7 4 -16 -3
-8 -2 -12 4 -9 6 3 10 2 10 -3 0 -5 28 -10 63 -11 85 -3 117 20 117 84 0 36
-5 47 -32 70 -18 15 -48 35 -68 43 -44 21 -91 58 -107 86 -18 31 -16 103 4
133 32 48 112 66 196 42z m919 0 l128 1 -1 -47 c-1 -27 -4 -39 -6 -28 -11 45
-32 55 -117 55 l-81 0 0 -92 c0 -67 -3 -93 -12 -94 -7 -1 -17 -2 -23 -3 -5 0
-10 -11 -9 -23 0 -18 2 -19 7 -7 6 12 25 17 87 18 88 3 93 4 105 35 6 15 9 2
9 -44 -1 -55 -2 -61 -11 -37 -10 28 -13 29 -113 30 -24 0 -40 -5 -39 -12 1 -6
2 -56 3 -111 1 -80 4 -100 15 -100 8 0 18 -5 21 -10 4 -6 -21 -10 -69 -9 -42
1 -73 5 -70 10 3 5 11 9 19 9 23 0 28 59 22 253 -6 174 -7 182 -29 200 l-23
19 30 -7 c16 -4 87 -6 157 -6z m1431 -1 c-2 -5 -10 -8 -17 -8 -20 0 -26 -57
-26 -262 l0 -186 28 -10 c21 -8 11 -10 -50 -8 -42 0 -74 4 -71 9 2 4 10 7 18
7 7 0 14 6 16 13 2 6 3 106 1 221 -3 196 -4 208 -23 213 -39 11 -17 18 55 18
41 0 72 -3 69 -7z m399 -6 c5 -5 11 -26 13 -48 5 -34 4 -36 -5 -14 -14 36 -60
60 -112 60 -61 0 -88 -21 -88 -69 0 -51 13 -66 105 -115 100 -54 120 -80 119
-153 0 -53 -2 -58 -43 -94 -49 -44 -108 -58 -164 -40 -43 15 -53 26 -61 74 -8
44 5 49 21 8 14 -38 52 -62 101 -64 56 -2 90 19 104 64 14 48 -3 78 -70 119
-26 16 -52 34 -59 40 -7 5 -16 10 -21 10 -16 0 -51 36 -62 64 -26 69 3 147 62
165 38 12 146 7 160 -7z m-5898 -19 c0 -12 2 -20 6 -18 3 2 16 -24 29 -58 12
-34 43 -113 67 -175 24 -63 44 -118 44 -123 0 -10 13 -28 44 -59 20 -20 19
-20 -59 -20 l-78 0 31 30 c19 18 29 36 26 45 -4 8 -8 15 -11 15 -3 0 -3 -7 0
-15 4 -8 2 -17 -2 -19 -5 -3 -18 21 -30 54 l-22 60 -83 0 -83 0 -17 -58 c-20
-72 -20 -92 -2 -92 8 0 17 -4 20 -8 3 -5 -21 -8 -54 -8 -42 1 -54 3 -42 10 22
12 33 30 53 86 68 185 112 311 121 343 12 42 44 49 42 10z m2375 -86 c24 -61
55 -139 68 -172 13 -33 32 -80 40 -105 9 -25 27 -55 41 -66 l24 -21 -78 -2
c-55 -1 -74 2 -64 9 8 5 26 10 40 11 22 2 23 2 3 6 -16 3 -27 20 -45 71 l-23
67 -86 3 -86 3 -18 -60 c-10 -33 -22 -58 -27 -55 -5 4 -4 -3 4 -15 7 -12 18
-21 25 -21 7 0 13 -4 13 -9 0 -5 -25 -9 -55 -8 l-55 1 24 21 c25 19 86 164
143 335 39 113 42 120 55 120 7 0 33 -51 57 -113z m1197 41 c110 -293 146
-375 171 -393 10 -8 -8 -11 -64 -13 -53 -1 -73 1 -63 8 8 5 24 10 35 11 17 1
17 2 3 6 -10 2 -18 11 -18 18 0 8 -11 39 -24 70 l-25 55 -80 0 -79 0 -17 -52
c-10 -29 -21 -57 -26 -62 -8 -9 5 -26 34 -43 15 -7 5 -10 -42 -9 -34 0 -61 4
-61 8 0 8 22 12 50 9 12 -2 12 0 2 7 -11 8 -10 18 9 53 21 42 41 97 111 307
17 52 36 92 43 92 7 0 26 -33 41 -72z m930 55 c7 -22 47 -126 109 -284 25 -64
45 -121 45 -127 0 -6 12 -19 26 -29 l26 -19 -78 -2 c-63 -1 -75 1 -59 10 11 6
22 12 24 14 2 2 -9 35 -24 73 l-28 71 -83 0 -83 0 -7 -35 c-3 -19 -10 -38 -15
-41 -16 -9 -11 -74 6 -74 8 0 15 -4 15 -9 0 -4 -25 -8 -55 -7 -30 0 -55 4 -55
8 0 4 6 8 14 8 8 0 21 9 29 20 8 11 17 17 22 12 5 -4 5 -1 0 6 -4 8 3 40 18
75 14 34 37 98 52 142 15 44 36 108 48 143 21 61 42 79 53 45z m616 -8 c59
-40 61 -104 6 -166 -24 -27 -84 -53 -99 -43 -5 3 -9 0 -9 -5 0 -6 8 -11 18
-11 17 -1 150 -186 144 -203 -1 -5 1 -6 5 -4 9 6 49 -20 42 -27 -2 -2 -26 1
-52 7 -55 12 -72 30 -143 144 -27 43 -52 80 -56 81 -18 8 -6 20 27 26 56 11
85 43 91 102 6 43 3 54 -17 77 -23 25 -45 31 -111 28 l-28 -1 0 -219 0 -219
28 -10 c21 -8 9 -10 -58 -10 -71 1 -80 3 -57 11 l27 11 0 213 c0 163 3 213 13
214 6 0 -4 7 -23 14 -32 12 -26 14 90 14 118 1 128 0 162 -24z"/>
<path d="M6500 6298 c0 -4 8 -8 18 -8 15 0 15 -2 2 -11 -12 -8 -10 -9 10 -7
38 5 38 35 0 35 -16 0 -30 -4 -30 -9z"/>
<path d="M6650 6300 c0 -5 5 -10 10 -10 6 0 10 5 10 10 0 6 -4 10 -10 10 -5 0
-10 -4 -10 -10z"/>
<path d="M6218 6293 c7 -3 16 -2 19 1 4 3 -2 6 -13 5 -11 0 -14 -3 -6 -6z"/>
<path d="M6070 6275 c0 -8 7 -15 16 -15 14 0 14 3 4 15 -7 8 -14 15 -16 15 -2
0 -4 -7 -4 -15z"/>
<path d="M6080 6240 c0 -5 5 -10 10 -10 6 0 10 5 10 10 0 6 -4 10 -10 10 -5 0
-10 -4 -10 -10z"/>
<path d="M6970 6221 c0 -5 7 -12 16 -15 14 -5 15 -4 4 9 -14 17 -20 19 -20 6z"/>
<path d="M7008 6223 c6 -2 12 -11 12 -19 0 -9 5 -12 10 -9 6 4 8 10 5 15 -3 4
1 11 7 13 7 3 0 5 -17 5 -16 0 -24 -2 -17 -5z"/>
<path d="M5750 6179 c-14 -17 -24 -35 -22 -41 1 -5 -1 -7 -6 -4 -13 8 -31 -9
-23 -22 11 -19 57 8 53 31 -2 10 3 17 12 17 9 0 16 -7 16 -15 0 -20 6 -19 30
5 l20 20 -30 0 c-32 0 -37 9 -18 28 7 7 8 12 3 12 -6 -1 -21 -15 -35 -31z"/>
<path d="M5890 6200 c0 -5 5 -10 10 -10 6 0 10 5 10 10 0 6 -4 10 -10 10 -5 0
-10 -4 -10 -10z"/>
<path d="M6940 6190 c-8 -5 -37 -7 -64 -3 -34 4 -47 3 -42 -5 11 -19 -14 -24
-39 -8 -21 14 -24 14 -29 0 -9 -25 -8 -27 19 -22 21 4 24 2 20 -12 -3 -10 -1
-21 5 -25 12 -8 60 34 60 53 0 10 7 9 30 -3 27 -14 32 -14 55 1 14 9 25 20 25
25 0 12 -21 11 -40 -1z"/>
<path d="M7091 6174 c0 -11 3 -14 6 -6 3 7 2 16 -1 19 -3 4 -6 -2 -5 -13z"/>
<path d="M6120 6169 c0 -5 5 -7 10 -4 6 3 10 8 10 11 0 2 -4 4 -10 4 -5 0 -10
-5 -10 -11z"/>
<path d="M7004 6159 c-3 -6 1 -18 10 -27 15 -15 16 -14 16 11 0 27 -13 36 -26
16z"/>
<path d="M7064 6100 c-1 -28 3 -50 8 -50 13 0 27 44 17 55 -5 5 -9 17 -9 27 0
10 -3 18 -7 18 -5 0 -8 -23 -9 -50z"/>
<path d="M7101 6124 c0 -11 3 -14 6 -6 3 7 2 16 -1 19 -3 4 -6 -2 -5 -13z"/>
<path d="M6857 6123 c-10 -9 -9 -23 2 -23 5 0 11 7 15 15 5 15 -5 20 -17 8z"/>
<path d="M5795 6110 c3 -5 14 -10 23 -10 15 0 15 2 2 10 -20 13 -33 13 -25 0z"/>
<path d="M6770 6104 c0 -9 5 -14 12 -12 18 6 21 28 4 28 -9 0 -16 -7 -16 -16z"/>
<path d="M6916 6104 c-8 -22 1 -31 16 -16 14 14 38 16 38 3 0 -5 -7 -16 -15
-25 -17 -17 -19 -32 -5 -41 5 -3 19 9 30 27 11 18 20 31 21 28 5 -27 5 -51 0
-58 -11 -15 -79 -30 -90 -19 -6 6 -13 -1 -19 -24 -6 -26 -5 -35 5 -37 7 -2 13
-9 13 -17 0 -8 -7 -11 -19 -8 -16 4 -20 -1 -23 -29 -3 -30 -6 -33 -33 -32 -26
1 -31 -3 -33 -24 -2 -24 -1 -24 16 -9 10 10 21 14 25 11 3 -3 15 -3 26 1 13 4
18 11 14 22 -4 11 -2 14 5 9 7 -4 12 -1 12 8 0 9 5 15 12 14 8 -2 11 12 9 44
l-2 47 43 -13 c24 -8 51 -17 61 -21 12 -5 17 -2 17 9 0 9 -12 19 -27 22 -24 7
-25 8 -8 14 11 4 26 3 33 -2 8 -8 12 -6 12 6 0 9 -7 16 -15 16 -8 0 -15 5 -15
10 0 6 7 10 15 10 13 0 14 4 3 23 -7 12 -11 28 -9 36 2 10 -4 12 -22 7 -17 -4
-27 -1 -31 9 -7 20 -52 19 -60 -1z"/>
<path d="M6222 6102 c-13 -4 -23 -10 -23 -14 1 -5 1 -16 1 -25 0 -10 4 -14 8
-8 4 6 16 15 26 21 20 11 34 35 19 33 -4 -1 -18 -4 -31 -7z"/>
<path d="M6540 6096 c0 -22 17 -28 24 -10 9 22 8 24 -9 24 -8 0 -15 -6 -15
-14z"/>
<path d="M7207 6104 c-7 -8 3 -34 13 -34 4 0 10 9 13 20 5 19 -12 28 -26 14z"/>
<path d="M6444 6084 c5 -13 1 -15 -19 -12 -35 7 -41 -8 -7 -21 15 -5 36 -17
47 -26 17 -14 18 -17 5 -25 -45 -26 -53 -37 -46 -63 3 -15 13 -27 22 -27 10 0
14 5 10 15 -3 8 -9 22 -12 30 -4 10 0 15 13 15 10 0 24 5 31 12 9 9 15 9 24 0
16 -16 28 -15 28 3 0 8 5 15 11 15 20 0 43 30 31 42 -8 8 -15 6 -27 -6 -37
-36 -91 -10 -79 38 5 22 3 26 -16 26 -16 0 -21 -4 -16 -16z"/>
<path d="M6730 6085 c0 -9 5 -15 11 -13 6 2 11 8 11 13 0 5 -5 11 -11 13 -6 2
-11 -4 -11 -13z"/>
<path d="M6800 6091 c0 -12 29 -35 36 -28 11 10 -5 37 -21 37 -8 0 -15 -4 -15
-9z"/>
<path d="M6288 6060 c-5 -34 -2 -41 16 -34 13 5 9 64 -4 64 -4 0 -10 -14 -12
-30z"/>
<path d="M6490 6071 c0 -12 29 -35 36 -28 11 10 -5 37 -21 37 -8 0 -15 -4 -15
-9z"/>
<path d="M6090 6050 c-6 -11 -8 -30 -5 -43 7 -28 -18 -60 -60 -74 l-30 -11 27
-7 c27 -7 32 -25 14 -53 -10 -17 -1 -26 18 -19 11 5 14 15 11 39 -5 31 -5 31
5 8 11 -24 12 -24 25 -6 8 10 19 15 25 11 8 -5 8 -11 -1 -21 -7 -9 -8 -14 -1
-14 11 0 27 38 19 46 -2 3 -15 7 -27 9 -29 6 -30 7 -23 33 3 12 12 22 20 22
10 0 12 -6 8 -20 -4 -14 -2 -20 9 -20 8 0 19 -8 25 -17 5 -10 13 -15 17 -11 4
4 1 14 -5 22 -8 10 -9 16 -1 21 14 9 12 46 -4 68 -20 27 -26 20 -10 -12 16
-32 10 -61 -13 -61 -8 0 -12 4 -9 9 3 5 1 23 -6 41 -8 25 -8 38 1 51 15 24 14
29 -4 29 -8 0 -19 -9 -25 -20z"/>
<path d="M6715 6050 c-3 -5 -2 -17 3 -26 8 -14 10 -12 10 9 0 29 -3 33 -13 17z"/>
<path d="M6769 6047 c6 -8 8 -17 4 -21 -4 -3 2 -13 13 -22 18 -15 17 -15 -13
-10 -31 5 -32 4 -20 -15 10 -16 9 -21 -2 -28 -10 -7 -10 -10 -1 -16 8 -5 9
-10 1 -14 -6 -4 -3 -11 9 -19 17 -10 19 -8 18 18 -1 15 6 36 16 45 19 19 19
21 6 45 -7 13 -7 21 0 25 5 3 10 12 10 18 0 8 -3 8 -9 -2 -6 -9 -11 -10 -15
-2 -4 6 -12 11 -18 11 -7 0 -7 -4 1 -13z"/>
<path d="M6350 6041 c0 -9 23 -21 41 -21 4 0 6 7 3 15 -7 16 -44 21 -44 6z"/>
<path d="M5810 6031 c0 -5 7 -14 15 -21 16 -14 18 -10 9 14 -6 17 -24 22 -24
7z"/>
<path d="M6245 6030 c3 -5 10 -10 16 -10 5 0 9 5 9 10 0 6 -7 10 -16 10 -8 0
-12 -4 -9 -10z"/>
<path d="M6190 6023 c0 -5 7 -17 15 -27 15 -20 20 -10 9 18 -6 16 -24 22 -24
9z"/>
<path d="M6300 6010 c0 -5 5 -10 10 -10 6 0 10 5 10 10 0 6 -4 10 -10 10 -5 0
-10 -4 -10 -10z"/>
<path d="M6605 6010 c3 -5 8 -10 11 -10 2 0 4 5 4 10 0 6 -5 10 -11 10 -5 0
-7 -4 -4 -10z"/>
<path d="M6830 6010 c0 -5 5 -10 10 -10 16 0 -12 -38 -31 -43 -26 -7 -21 -62
5 -62 25 0 34 25 9 25 -14 1 -12 6 12 25 36 29 44 75 14 75 -10 0 -19 -4 -19
-10z"/>
<path d="M5847 6003 c-4 -6 -16 -9 -27 -6 -30 8 -25 -20 6 -34 20 -9 26 -9 30
2 8 20 0 53 -9 38z"/>
<path d="M6335 6000 c3 -5 8 -10 11 -10 2 0 4 5 4 10 0 6 -5 10 -11 10 -5 0
-7 -4 -4 -10z"/>
<path d="M5742 5993 c-15 -6 -6 -23 14 -23 8 0 14 7 14 15 0 15 -6 17 -28 8z"/>
<path d="M6384 5989 c-8 -14 18 -31 30 -19 9 9 0 30 -14 30 -5 0 -12 -5 -16
-11z"/>
<path d="M6274 5982 c16 -7 17 -10 4 -23 -8 -8 -13 -20 -10 -27 6 -18 -15 -14
-22 4 -4 9 -9 14 -13 11 -3 -4 0 -13 7 -22 7 -8 10 -15 6 -15 -3 0 2 -8 12
-18 9 -10 26 -17 37 -16 11 1 30 2 43 3 14 0 20 5 16 12 -3 6 -18 8 -33 5 -14
-3 -21 -3 -15 0 19 8 -9 88 -32 91 -18 3 -18 3 0 -5z"/>
<path d="M7388 5983 c7 -3 16 -2 19 1 4 3 -2 6 -13 5 -11 0 -14 -3 -6 -6z"/>
<path d="M7068 5954 c3 -18 1 -25 -9 -23 -22 4 -72 -23 -58 -32 6 -3 23 -1 36
6 14 8 31 11 38 9 17 -7 25 39 9 54 -19 17 -22 15 -16 -14z"/>
<path d="M7110 5970 c0 -5 5 -10 10 -10 6 0 10 5 10 10 0 6 -4 10 -10 10 -5 0
-10 -4 -10 -10z"/>
<path d="M7147 5961 c-16 -16 -16 -19 -2 -31 19 -15 24 -11 31 24 5 30 -4 32
-29 7z"/>
<path d="M7382 5945 c-1 -14 3 -25 8 -25 6 0 10 4 10 9 0 5 3 16 6 25 4 10 1
16 -8 16 -7 0 -15 -11 -16 -25z"/>
<path d="M6482 5943 c-21 -8 -4 -21 23 -16 13 3 22 9 19 14 -6 10 -21 10 -42
2z"/>
<path d="M6940 5934 c0 -12 6 -15 23 -10 12 3 27 6 32 6 6 0 3 5 -5 10 -23 15
-50 12 -50 -6z"/>
<path d="M6339 5922 c25 -22 51 -29 51 -13 0 5 -8 11 -17 14 -10 2 -27 8 -38
12 -17 7 -16 5 4 -13z"/>
<path d="M5781 5901 c-22 -14 -5 -28 29 -23 28 4 29 5 13 18 -21 16 -24 16
-42 5z"/>
<path d="M6440 5901 c-29 -5 -35 -10 -35 -31 0 -18 -5 -25 -19 -23 -13 1 -15
-2 -7 -10 7 -7 15 -6 25 3 9 7 22 10 31 7 8 -4 17 -2 20 3 3 5 -5 11 -17 13
-13 3 -2 3 25 2 48 -2 76 11 35 17 -13 2 -22 9 -20 16 1 6 1 11 0 11 -2 -1
-19 -4 -38 -8z"/>
<path d="M6940 5890 c0 -19 3 -21 12 -12 9 9 9 15 0 24 -9 9 -12 7 -12 -12z"/>
<path d="M6710 5880 c0 -13 7 -20 20 -20 23 0 26 10 8 28 -18 18 -28 15 -28
-8z"/>
<path d="M6155 5880 c-8 -13 -1 -24 14 -19 6 3 7 10 2 18 -6 10 -10 10 -16 1z"/>
<path d="M7192 5883 c-15 -6 -6 -23 14 -23 8 0 14 7 14 15 0 15 -6 17 -28 8z"/>
<path d="M6760 5870 c0 -5 5 -10 10 -10 6 0 10 5 10 10 0 6 -4 10 -10 10 -5 0
-10 -4 -10 -10z"/>
<path d="M6957 5865 c-24 -17 -21 -34 8 -47 30 -13 43 -5 25 17 -7 9 -10 18
-6 22 3 4 13 -2 22 -13 15 -18 15 -18 5 2 -14 28 -33 35 -54 19z"/>
<path d="M5735 5860 c-7 -12 2 -30 16 -30 5 0 9 9 9 20 0 21 -15 27 -25 10z"/>
<path d="M6313 5835 c1 -21 4 -30 9 -22 6 9 12 9 28 -1 22 -14 25 -7 14 36 -4
15 -14 22 -29 22 -20 0 -23 -5 -22 -35z"/>
<path d="M5960 5854 c0 -16 41 -46 55 -40 15 5 15 7 1 22 -15 14 -56 28 -56
18z"/>
<path d="M6905 5850 c-3 -5 -1 -10 4 -10 6 0 11 5 11 10 0 6 -2 10 -4 10 -3 0
-8 -4 -11 -10z"/>
<path d="M6470 5835 c0 -9 5 -15 11 -13 6 2 11 8 11 13 0 5 -5 11 -11 13 -6 2
-11 -4 -11 -13z"/>
<path d="M6754 5834 c3 -9 6 -20 6 -25 0 -5 5 -9 11 -9 6 0 9 6 6 14 -3 7 -1
18 4 23 5 5 0 9 -12 10 -15 1 -19 -2 -15 -13z"/>
<path d="M6076 5832 c-2 -4 -1 -14 3 -21 7 -11 13 -9 30 8 l21 21 -24 0 c-14
0 -27 -4 -30 -8z"/>
<path d="M5790 5820 c0 -4 8 -10 18 -13 9 -2 25 -8 36 -12 14 -6 17 -4 14 11
-2 13 -13 19 -36 20 -17 1 -32 -2 -32 -6z"/>
<path d="M5926 5814 c-3 -8 5 -32 19 -52 14 -20 25 -40 25 -45 0 -4 9 -17 20
-29 10 -11 22 -33 25 -49 7 -30 62 -119 75 -119 4 0 11 11 14 24 6 26 -20 126
-33 126 -5 0 -19 19 -31 42 -17 33 -19 43 -8 50 9 6 7 8 -8 4 -14 -4 -27 1
-39 14 -18 20 -18 21 0 14 17 -7 18 -6 5 8 -8 9 -18 14 -22 11 -5 -2 -8 1 -8
6 0 17 -27 13 -34 -5z"/>
<path d="M6150 5820 c-12 -7 -10 -11 10 -18 31 -12 39 -6 19 13 -9 9 -19 11
-29 5z"/>
<path d="M6380 5812 c0 -16 35 -49 47 -45 10 3 9 -4 -1 -29 -14 -33 -11 -84 5
-94 5 -3 9 4 9 15 0 20 32 45 60 46 8 0 16 9 17 20 2 11 0 14 -3 8 -3 -7 -10
-13 -15 -13 -6 0 -6 8 1 19 13 25 13 71 0 71 -6 0 -25 -7 -42 -16 -22 -11 -33
-13 -41 -5 -8 8 -7 11 4 11 12 0 12 2 -1 10 -19 12 -40 13 -40 2z"/>
<path d="M6842 5811 c-22 -6 -28 -28 -7 -24 6 1 24 4 40 7 26 5 28 5 10 -6
-11 -6 -23 -16 -27 -22 -5 -7 -8 -7 -8 2 0 7 -5 10 -11 6 -24 -15 9 -26 47
-15 21 6 40 8 42 6 9 -9 -50 -25 -89 -25 -23 0 -57 -10 -79 -22 -41 -24 -54
-43 -22 -34 45 13 77 17 63 8 -10 -7 0 -11 37 -13 27 -2 48 -1 45 4 -2 4 -13
7 -24 7 -31 0 -22 15 11 17 17 1 43 9 58 17 15 8 53 26 85 40 62 28 71 41 32
48 -18 4 -22 2 -16 -6 7 -8 -7 -11 -49 -11 -32 0 -56 3 -53 8 2 4 -5 7 -16 7
-10 0 -25 2 -33 4 -7 2 -23 1 -36 -3z"/>
<path d="M5691 5801 c-8 -5 -11 -16 -8 -25 5 -14 10 -14 26 -4 10 6 17 18 14
25 -6 15 -13 16 -32 4z"/>
<path d="M5890 5801 c0 -6 4 -12 8 -15 5 -3 9 1 9 9 0 8 -4 15 -9 15 -4 0 -8
-4 -8 -9z"/>
<path d="M5764 5785 c3 -8 2 -15 -3 -15 -4 0 -8 -6 -8 -14 0 -8 6 -12 13 -9 7
2 17 -5 24 -16 6 -11 16 -20 22 -18 7 1 14 -7 16 -18 6 -28 22 -45 43 -45 10
0 21 -5 25 -12 5 -8 0 -9 -15 -5 -22 6 -23 5 -5 -12 11 -10 20 -14 22 -10 5
12 52 -13 52 -28 0 -7 -5 -13 -11 -13 -5 0 -8 4 -5 8 2 4 -4 9 -15 9 -10 1
-19 -3 -19 -8 0 -6 5 -7 10 -4 6 3 13 0 16 -8 2 -7 10 -14 17 -14 7 0 24 -4
40 -8 17 -5 27 -3 27 4 0 6 -7 11 -15 11 -9 0 -15 6 -14 13 1 6 -2 27 -6 46
-6 24 -16 36 -36 43 -16 5 -29 14 -29 18 0 4 -17 18 -37 31 -29 17 -34 24 -20
27 27 6 20 29 -14 41 -42 14 -58 3 -28 -20 24 -18 24 -19 3 -19 -24 0 -37 21
-28 45 4 10 0 15 -11 15 -11 0 -15 -5 -11 -15z"/>
<path d="M6335 5790 c3 -5 8 -10 11 -10 2 0 4 5 4 10 0 6 -5 10 -11 10 -5 0
-7 -4 -4 -10z"/>
<path d="M6730 5769 c-7 -16 -19 -29 -27 -29 -16 0 -28 -25 -18 -40 5 -8 19 0
42 22 19 18 36 31 38 28 2 -3 7 -1 12 4 5 5 2 6 -6 1 -10 -6 -12 -3 -7 13 11
34 -20 35 -34 1z"/>
<path d="M6055 5780 c-3 -5 -1 -10 5 -12 5 -1 11 -15 12 -29 1 -18 7 -25 15
-22 16 6 53 -24 53 -43 0 -16 59 -66 71 -58 20 12 7 43 -28 70 -56 44 -78 67
-66 71 5 2 25 -10 43 -27 17 -16 36 -27 41 -24 5 3 9 -3 9 -12 0 -10 3 -15 6
-11 9 8 -15 73 -32 87 -16 14 -122 22 -129 10z"/>
<path d="M7100 5775 c0 -8 -3 -14 -7 -14 -5 1 -11 0 -15 -1 -14 -4 -28 -7 -40
-9 -8 -1 -9 -4 -2 -11 12 -12 74 6 74 22 0 5 5 6 10 3 6 -3 10 -2 10 3 0 6 -7
12 -15 16 -9 3 -15 0 -15 -9z"/>
<path d="M6380 5755 c-7 -9 -11 -17 -9 -20 3 -2 10 5 17 15 14 24 10 26 -8 5z"/>
<path d="M5710 5748 c0 -4 4 -8 9 -8 6 0 12 4 15 8 3 5 -1 9 -9 9 -8 0 -15 -4
-15 -9z"/>
<path d="M5880 5746 c0 -7 72 -47 77 -42 3 2 0 14 -7 25 -7 14 -21 21 -40 21
-17 0 -30 -2 -30 -4z"/>
<path d="M6045 5740 c-3 -5 -1 -10 4 -10 6 0 11 5 11 10 0 6 -2 10 -4 10 -3 0
-8 -4 -11 -10z"/>
<path d="M6395 5740 c-3 -5 -1 -10 4 -10 6 0 11 5 11 10 0 6 -2 10 -4 10 -3 0
-8 -4 -11 -10z"/>
<path d="M7270 5741 c0 -8 -7 -11 -15 -7 -10 4 -15 -1 -15 -14 0 -26 27 -26
35 1 4 11 4 23 1 26 -3 4 -6 1 -6 -6z"/>
<path d="M6662 5710 c0 -14 2 -19 5 -12 2 6 2 18 0 25 -3 6 -5 1 -5 -13z"/>
<path d="M6391 5704 c0 -11 3 -14 6 -6 3 7 2 16 -1 19 -3 4 -6 -2 -5 -13z"/>
<path d="M6954 5712 c8 -13 -29 -26 -45 -16 -7 4 -9 3 -6 -3 4 -6 20 -13 37
-15 24 -4 30 -1 30 13 0 10 -5 21 -12 25 -6 4 -8 3 -4 -4z"/>
<path d="M7350 5703 c0 -15 -2 -16 -10 -3 -8 12 -10 11 -10 -7 0 -14 -6 -23
-16 -23 -8 0 -13 -4 -10 -9 7 -11 46 -2 46 10 0 5 5 9 10 9 6 0 10 -7 10 -15
0 -13 3 -13 20 -3 23 15 27 33 5 24 -10 -4 -15 1 -15 14 0 11 -7 20 -15 20 -8
0 -15 -8 -15 -17z"/>
<path d="M7305 5690 c3 -5 8 -10 11 -10 2 0 4 5 4 10 0 6 -5 10 -11 10 -5 0
-7 -4 -4 -10z"/>
<path d="M7245 5680 c3 -5 11 -10 16 -10 6 0 7 5 4 10 -3 6 -11 10 -16 10 -6
0 -7 -4 -4 -10z"/>
<path d="M6126 5631 c8 -15 17 -50 20 -77 7 -49 38 -114 55 -114 12 0 11 26
-1 72 -9 30 -8 42 5 62 12 18 13 24 3 23 -33 -1 -45 5 -61 33 -23 38 -40 39
-21 1z"/>
<path d="M5990 5636 c0 -8 4 -17 9 -20 5 -4 7 3 4 14 -6 23 -13 26 -13 6z"/>
<path d="M6617 5643 c-4 -3 -7 -11 -7 -17 0 -6 5 -5 12 2 6 6 9 14 7 17 -3 3
-9 2 -12 -2z"/>
<path d="M6555 5602 c-19 -4 -36 -20 -56 -55 -10 -18 -9 -18 18 -1 15 10 36
24 46 32 17 15 18 13 21 -20 1 -7 6 -16 11 -20 6 -5 6 -8 -2 -8 -6 0 -15 5
-18 10 -10 16 -35 12 -29 -5 4 -9 19 -15 42 -15 28 0 33 3 24 12 -7 7 -12 19
-12 28 0 25 -23 47 -45 42z"/>
<path d="M6435 5590 c3 -5 8 -10 11 -10 2 0 4 5 4 10 0 6 -5 10 -11 10 -5 0
-7 -4 -4 -10z"/>
<path d="M6224 5536 c-9 -20 -9 -26 2 -30 10 -4 14 3 14 24 0 36 -2 37 -16 6z"/>
<path d="M6020 5503 c0 -10 40 -36 46 -30 3 2 -7 12 -21 21 -14 9 -25 13 -25
9z"/>
<path d="M6120 5470 c0 -5 4 -10 9 -10 6 0 13 5 16 10 3 6 -1 10 -9 10 -9 0
-16 -4 -16 -10z"/>
<path d="M5555 6041 c-7 -12 12 -24 25 -16 11 7 4 25 -10 25 -5 0 -11 -4 -15
-9z"/>
<path d="M7510 5690 c0 -5 5 -10 11 -10 5 0 7 5 4 10 -3 6 -8 10 -11 10 -2 0
-4 -4 -4 -10z"/>
<path d="M6870 5560 c-8 -5 -12 -12 -9 -15 4 -3 12 1 19 10 14 17 11 19 -10 5z"/>
<path d="M6762 5533 c-6 -2 -10 -9 -7 -13 7 -11 35 -2 35 11 0 10 -8 10 -28 2z"/>
<path d="M6505 5480 c-3 -5 -1 -10 4 -10 6 0 11 5 11 10 0 6 -2 10 -4 10 -3 0
-8 -4 -11 -10z"/>
<path d="M6508 5383 c7 -3 16 -2 19 1 4 3 -2 6 -13 5 -11 0 -14 -3 -6 -6z"/>
<path d="M6484 5372 c3 -5 0 -13 -6 -15 -9 -4 -10 -6 -1 -6 17 -1 25 16 12 25
-7 4 -9 3 -5 -4z"/>
<path d="M6271 5014 c0 -11 3 -14 6 -6 3 7 2 16 -1 19 -3 4 -6 -2 -5 -13z"/>
<path d="M6109 4638 c-1 -2 -3 -15 -4 -29 -3 -24 0 -27 30 -31 25 -3 31 -1 25
7 -6 7 -7 14 -4 18 3 3 -3 3 -15 0 -19 -5 -26 4 -22 30 1 6 -7 10 -10 5z"/>
<path d="M5995 4600 c-20 -8 -18 -10 20 -14 6 -1 16 -5 23 -10 8 -5 18 -4 25
3 8 8 5 11 -11 11 -12 0 -22 5 -22 10 0 12 -8 12 -35 0z"/>
<path d="M6488 4599 c-10 -5 -25 -9 -34 -7 -9 2 -19 -1 -20 -7 -3 -6 20 -10
56 -10 48 -1 60 2 59 15 0 10 -2 11 -6 3 -6 -16 -24 -17 -20 -2 3 16 -15 20
-35 8z"/>
<path d="M5155 3773 c4 -10 9 -35 12 -55 3 -21 10 -38 14 -38 5 0 9 -18 9 -39
0 -22 4 -42 8 -45 13 -8 -6 120 -22 152 -8 16 -12 32 -9 36 4 3 1 6 -6 6 -9 0
-11 -6 -6 -17z"/>
<path d="M5217 3774 c3 -9 9 -11 12 -6 3 5 13 12 21 15 9 3 4 6 -12 6 -21 1
-26 -3 -21 -15z"/>
<path d="M5288 3783 c12 -2 32 -2 45 0 12 2 2 4 -23 4 -25 0 -35 -2 -22 -4z"/>
<path d="M5418 3773 c6 -2 18 -2 25 0 6 3 1 5 -13 5 -14 0 -19 -2 -12 -5z"/>
<path d="M5495 3770 c3 -5 11 -10 16 -10 6 0 7 5 4 10 -3 6 -11 10 -16 10 -6
0 -7 -4 -4 -10z"/>
<path d="M5538 3774 c-4 -6 1 -19 12 -29 12 -10 20 -13 20 -7 0 7 -4 12 -9 12
-5 0 -11 8 -13 18 -2 11 -6 13 -10 6z"/>
<path d="M5186 3755 c4 -8 11 -15 16 -15 6 0 5 6 -2 15 -7 8 -14 15 -16 15 -2
0 -1 -7 2 -15z"/>
<path d="M5221 3724 c0 -11 3 -14 6 -6 3 7 2 16 -1 19 -3 4 -6 -2 -5 -13z"/>
<path d="M5214 3666 c-3 -8 -4 -23 -1 -33 3 -13 5 -11 7 7 1 23 2 23 10 5 8
-18 9 -17 9 8 1 28 -16 37 -25 13z"/>
<path d="M5173 3620 c0 -25 2 -35 4 -22 2 12 2 32 0 45 -2 12 -4 2 -4 -23z"/>
<path d="M5223 3540 c0 -25 2 -35 4 -22 2 12 2 32 0 45 -2 12 -4 2 -4 -23z"/>
<path d="M5190 3561 c0 -5 5 -13 10 -16 6 -3 10 -2 10 4 0 5 -4 13 -10 16 -5
3 -10 2 -10 -4z"/>
<path d="M5186 3522 c-6 -10 9 -62 18 -62 5 0 -2 61 -8 67 -2 2 -7 0 -10 -5z"/>
<path d="M5484 3439 c-3 -6 -1 -16 5 -22 8 -8 11 -8 11 2 0 7 5 9 13 5 8 -5 8
-2 -2 9 -16 20 -18 20 -27 6z"/>
<path d="M5220 3419 c0 -5 5 -7 10 -4 6 3 10 8 10 11 0 2 -4 4 -10 4 -5 0 -10
-5 -10 -11z"/>
<path d="M5308 3423 c7 -3 16 -2 19 1 4 3 -2 6 -13 5 -11 0 -14 -3 -6 -6z"/>
<path d="M5170 3386 c0 -14 5 -26 10 -26 6 0 10 5 10 11 0 5 5 7 10 4 6 -3 10
2 10 11 0 10 -3 14 -7 11 -3 -4 -12 -2 -20 4 -10 9 -13 6 -13 -15z"/>
<path d="M5232 3320 c0 -19 2 -27 5 -17 2 9 2 25 0 35 -3 9 -5 1 -5 -18z"/>
<path d="M5171 3219 c-1 -76 -1 -76 24 -71 25 4 25 22 0 22 -11 0 -14 10 -10
39 3 22 1 50 -4 63 -7 17 -10 5 -10 -53z"/>
<path d="M5202 3250 c0 -14 2 -19 5 -12 2 6 2 18 0 25 -3 6 -5 1 -5 -13z"/>
<path d="M5222 3240 c0 -14 2 -19 5 -12 2 6 2 18 0 25 -3 6 -5 1 -5 -13z"/>
<path d="M5232 3160 c0 -19 2 -27 5 -17 2 9 2 25 0 35 -3 9 -5 1 -5 -18z"/>
<path d="M5210 3079 c0 -5 5 -7 10 -4 6 3 10 8 10 11 0 2 -4 4 -10 4 -5 0 -10
-5 -10 -11z"/>
<path d="M5550 3070 c-14 -11 -20 -20 -15 -19 13 0 50 28 44 33 -2 3 -15 -4
-29 -14z"/>
<path d="M5168 3058 c-4 -10 -1 -19 8 -22 26 -10 34 -7 33 12 0 10 -3 12 -6 5
-7 -19 -21 -16 -25 5 -3 15 -4 16 -10 0z"/>
<path d="M5503 3033 c9 -2 23 -2 30 0 6 3 -1 5 -18 5 -16 0 -22 -2 -12 -5z"/>
<path d="M8660 3770 c-12 -8 -11 -10 7 -10 12 0 25 5 28 10 8 13 -15 13 -35 0z"/>
<path d="M8701 3740 c0 -14 4 -34 8 -45 8 -19 8 -19 16 4 4 13 3 26 -2 30 -6
3 -13 13 -16 21 -3 9 -5 5 -6 -10z"/>
<path d="M8660 3738 c0 -4 7 -8 15 -8 8 0 15 4 15 8 0 5 -7 9 -15 9 -8 0 -15
-4 -15 -9z"/>
<path d="M8672 3706 c7 -8 15 -12 17 -11 5 6 -10 25 -20 25 -5 0 -4 -6 3 -14z"/>
<path d="M8673 3600 c0 -36 2 -50 4 -32 2 17 2 47 0 65 -2 17 -4 3 -4 -33z"/>
<path d="M8723 3585 c0 -38 2 -53 4 -32 2 20 2 52 0 70 -2 17 -4 1 -4 -38z"/>
<path d="M8674 3410 c0 -63 1 -89 3 -57 2 31 2 83 0 115 -2 31 -3 5 -3 -58z"/>
<path d="M8691 3494 c0 -11 3 -14 6 -6 3 7 2 16 -1 19 -3 4 -6 -2 -5 -13z"/>
<path d="M8722 3450 c0 -14 2 -19 5 -12 2 6 2 18 0 25 -3 6 -5 1 -5 -13z"/>
<path d="M8691 3346 c-1 -37 2 -47 10 -39 8 8 8 22 1 50 l-10 38 -1 -49z"/>
<path d="M8673 3225 c0 -33 2 -45 4 -27 2 18 2 45 0 60 -2 15 -4 0 -4 -33z"/>
<path d="M8693 3240 c0 -25 2 -35 4 -22 2 12 2 32 0 45 -2 12 -4 2 -4 -23z"/>
<path d="M8711 3181 c0 -33 3 -51 8 -45 5 5 5 29 1 54 l-7 45 -2 -54z"/>
<path d="M8692 3165 c0 -16 2 -22 5 -12 2 9 2 23 0 30 -3 6 -5 -1 -5 -18z"/>
<path d="M8684 3088 c3 -13 6 -26 6 -30 0 -5 5 -8 10 -8 14 0 12 27 -2 33 -10
4 -9 8 2 16 13 9 12 11 -4 11 -14 0 -17 -5 -12 -22z"/>
<path d="M8660 3065 c0 -7 -8 -19 -17 -24 -16 -9 -16 -10 5 -11 17 0 22 6 22
25 0 14 -2 25 -5 25 -3 0 -5 -7 -5 -15z"/>
<path d="M8720 3039 c0 -5 12 -9 27 -9 30 0 27 9 -6 15 -11 2 -21 0 -21 -6z"/>
<path d="M9210 3784 c0 -5 7 -18 15 -28 8 -11 15 -16 15 -10 0 5 -7 18 -15 28
-8 11 -15 16 -15 10z"/>
<path d="M9681 3781 c-7 -5 -10 -14 -7 -20 11 -17 46 -13 46 5 0 8 4 13 9 9 5
-3 12 -1 16 5 8 12 -44 13 -64 1z m29 -11 c0 -5 -4 -10 -10 -10 -5 0 -10 5
-10 10 0 6 5 10 10 10 6 0 10 -4 10 -10z"/>
<path d="M9131 3754 c0 -11 3 -14 6 -6 3 7 2 16 -1 19 -3 4 -6 -2 -5 -13z"/>
<path d="M9155 3740 c3 -5 8 -10 11 -10 2 0 4 5 4 10 0 6 -5 10 -11 10 -5 0
-7 -4 -4 -10z"/>
<path d="M9207 3720 c18 -17 33 -17 33 -1 0 5 -11 11 -25 14 -25 4 -25 4 -8
-13z"/>
<path d="M9135 3710 c3 -5 11 -10 16 -10 6 0 7 5 4 10 -3 6 -11 10 -16 10 -6
0 -7 -4 -4 -10z"/>
<path d="M9261 3652 c-17 -31 -13 -40 5 -14 9 13 14 26 11 29 -3 2 -10 -4 -16
-15z"/>
<path d="M9305 3640 c3 -5 8 -10 11 -10 2 0 4 5 4 10 0 6 -5 10 -11 10 -5 0
-7 -4 -4 -10z"/>
<path d="M9140 3614 c0 -14 4 -23 10 -19 6 3 10 15 10 26 0 10 -4 19 -10 19
-5 0 -10 -12 -10 -26z"/>
<path d="M9325 3610 c-3 -6 -14 -9 -22 -8 -9 2 -18 -3 -21 -11 -3 -10 2 -11
19 -6 28 9 45 22 37 30 -3 4 -9 1 -13 -5z"/>
<path d="M9345 3589 c-5 -8 -5 -11 0 -7 5 5 15 -1 23 -13 12 -18 12 -22 -4
-34 -12 -9 -14 -14 -6 -15 7 0 19 6 27 13 11 12 10 18 -9 42 -18 22 -24 25
-31 14z"/>
<path d="M9693 3550 c0 -30 2 -43 4 -27 2 15 2 39 0 55 -2 15 -4 2 -4 -28z"/>
<path d="M9301 3564 c-1 -7 7 -22 17 -33 l17 -22 0 26 c0 15 -5 23 -12 21 -6
-3 -14 0 -17 7 -3 8 -5 9 -5 1z"/>
<path d="M9143 3445 c0 -44 2 -61 4 -37 2 23 2 59 0 80 -2 20 -4 1 -4 -43z"/>
<path d="M9420 3480 c-8 -5 -11 -10 -6 -10 5 0 3 -7 -4 -15 -7 -8 -16 -12 -21
-9 -5 3 -9 0 -9 -5 0 -6 4 -11 8 -11 5 0 23 -22 41 -50 18 -27 39 -50 48 -50
10 0 13 -6 9 -16 -5 -14 -4 -15 9 -4 17 14 21 35 5 25 -5 -3 -10 -2 -10 4 0 5
-8 12 -17 15 -40 13 -75 96 -40 92 7 0 13 4 14 9 0 6 -4 9 -9 7 -6 -2 -8 4 -5
13 7 18 7 18 -13 5z"/>
<path d="M9701 3454 c0 -11 3 -14 6 -6 3 7 2 16 -1 19 -3 4 -6 -2 -5 -13z"/>
<path d="M9470 3420 c-11 -7 -11 -10 -2 -10 7 0 10 -4 7 -10 -3 -5 -2 -10 4
-10 5 0 13 5 16 10 3 6 1 10 -5 10 -6 0 -8 5 -5 10 8 12 4 12 -15 0z"/>
<path d="M9699 3403 c-5 -69 -4 -91 3 -81 7 12 9 88 1 88 -1 0 -3 -3 -4 -7z"/>
<path d="M9513 3372 c10 -10 14 -21 11 -24 -3 -3 -1 -9 5 -12 6 -4 8 2 6 14
-5 27 -14 40 -27 40 -6 0 -4 -8 5 -18z"/>
<path d="M9506 3311 c-4 -5 -2 -20 3 -33 11 -25 11 -25 16 15 4 26 -8 37 -19
18z"/>
<path d="M9599 3263 c12 -17 21 -35 20 -40 -3 -18 2 -33 10 -33 19 0 7 39 -22
72 l-29 33 21 -32z"/>
<path d="M9142 3250 c0 -19 2 -27 5 -17 2 9 2 25 0 35 -3 9 -5 1 -5 -18z"/>
<path d="M9546 3265 c4 -8 11 -15 16 -15 6 0 5 6 -2 15 -7 8 -14 15 -16 15 -2
0 -1 -7 2 -15z"/>
<path d="M9530 3248 c0 -9 5 -20 10 -23 13 -8 13 5 0 25 -8 13 -10 13 -10 -2z"/>
<path d="M9576 3242 c-3 -5 1 -9 9 -9 8 0 12 4 9 9 -3 4 -7 8 -9 8 -2 0 -6 -4
-9 -8z"/>
<path d="M9572 3204 c-7 -8 -8 -15 -2 -19 6 -3 10 0 10 7 1 7 9 3 20 -11 25
-29 27 -17 2 13 -14 19 -20 21 -30 10z"/>
<path d="M9695 3159 c-5 -15 -10 -18 -17 -11 -8 8 -17 4 -29 -13 -21 -25 -23
-35 -11 -35 5 0 14 10 21 23 11 22 11 22 5 -3 -6 -22 -5 -23 10 -11 14 12 16
11 16 -7 0 -11 3 -29 6 -39 6 -16 5 -16 -10 2 -16 20 -16 19 -8 -4 5 -14 14
-27 20 -29 8 -2 11 19 10 72 0 42 -2 76 -4 76 -1 0 -6 -9 -9 -21z"/>
<path d="M9610 3140 c0 -5 5 -10 11 -10 5 0 7 5 4 10 -3 6 -8 10 -11 10 -2 0
-4 -4 -4 -10z"/>
<path d="M9136 3093 c-4 -18 -16 -39 -27 -46 -17 -13 -16 -14 14 -15 20 -1 34
4 34 11 0 7 4 21 8 32 4 11 -2 7 -14 -10 -11 -16 -21 -25 -21 -19 0 5 5 15 11
21 6 6 9 21 7 34 -3 21 -5 20 -12 -8z"/>
<path d="M10292 3784 c4 -3 24 -8 45 -11 50 -7 40 3 -11 11 -22 4 -37 4 -34 0z"/>
<path d="M10372 3762 c-9 -7 -8 -13 8 -27 18 -16 20 -16 20 -2 0 10 -6 17 -12
17 -9 0 -8 4 2 10 8 5 11 10 5 10 -5 0 -16 -4 -23 -8z"/>
<path d="M10074 3735 c-4 -11 -14 -25 -21 -30 -7 -6 -16 -26 -19 -47 -5 -30
-3 -38 15 -47 17 -10 20 -18 16 -56 -3 -29 0 -47 8 -51 6 -4 9 -3 4 1 -4 5 0
20 10 34 15 24 15 25 0 12 -15 -11 -17 -11 -17 2 0 8 6 17 13 20 10 4 10 7 0
18 -7 7 -13 21 -13 31 0 10 -4 18 -9 18 -14 0 -20 26 -9 41 8 11 9 10 4 -3 -3
-10 -1 -18 4 -18 6 0 10 10 10 23 0 13 5 28 11 34 6 6 9 17 6 25 -3 9 -7 7
-13 -7z"/>
<path d="M10047 3583 c-4 -3 -7 -13 -7 -22 1 -13 3 -13 11 2 11 19 8 33 -4 20z"/>
<path d="M10106 3509 c-11 -10 -16 -22 -13 -26 4 -3 15 4 26 16 12 14 22 18
26 11 3 -6 11 -7 17 -4 6 4 5 10 -3 15 -20 13 -32 10 -53 -12z"/>
<path d="M10180 3496 c0 -2 7 -7 16 -10 8 -3 12 -2 9 4 -6 10 -25 14 -25 6z"/>
<path d="M10153 3476 c3 -8 1 -17 -6 -20 -7 -2 -5 -5 4 -5 22 -1 32 26 12 33
-10 4 -14 2 -10 -8z"/>
<path d="M10224 3459 c-11 -18 18 -40 36 -28 13 9 12 10 -2 5 -22 -7 -35 13
-17 25 9 6 10 9 2 9 -6 0 -15 -5 -19 -11z"/>
<path d="M10270 3450 c8 -5 22 -9 30 -9 10 0 8 3 -5 9 -27 12 -43 12 -25 0z"/>
<path d="M10160 3425 c14 -8 30 -14 35 -14 6 0 -1 6 -15 14 -14 8 -29 14 -35
14 -5 0 1 -6 15 -14z"/>
<path d="M10225 3400 c-3 -5 -1 -10 4 -10 6 0 11 5 11 10 0 6 -2 10 -4 10 -3
0 -8 -4 -11 -10z"/>
<path d="M10270 3400 c0 -5 7 -10 15 -10 8 0 12 -6 9 -14 -3 -8 -1 -17 5 -21
7 -4 8 0 4 11 -5 14 -3 15 14 6 11 -6 23 -8 27 -5 12 12 6 20 -16 19 -13 -1
-22 4 -20 12 1 6 -7 12 -18 12 -11 0 -20 -4 -20 -10z"/>
<path d="M10260 3370 c0 -5 5 -10 11 -10 5 0 7 5 4 10 -3 6 -8 10 -11 10 -2 0
-4 -4 -4 -10z"/>
<path d="M10390 3366 c0 -2 7 -9 15 -16 13 -11 14 -10 9 4 -5 14 -24 23 -24
12z"/>
<path d="M10350 3320 c0 -5 8 -6 17 -3 13 5 15 3 9 -13 -5 -14 -4 -16 5 -7 6
6 8 16 5 22 -9 14 -36 15 -36 1z"/>
<path d="M10417 3298 c8 -44 13 -48 13 -10 0 17 -4 34 -10 37 -6 4 -7 -6 -3
-27z"/>
<path d="M10397 3259 c4 -13 8 -18 11 -10 2 7 -1 18 -6 23 -8 8 -9 4 -5 -13z"/>
<path d="M10431 3224 c0 -11 3 -14 6 -6 3 7 2 16 -1 19 -3 4 -6 -2 -5 -13z"/>
<path d="M10406 3203 c-6 -14 -5 -15 5 -6 7 7 10 15 7 18 -3 3 -9 -2 -12 -12z"/>
<path d="M10407 3159 c-4 -16 -3 -18 9 -8 16 13 19 29 5 29 -5 0 -11 -9 -14
-21z"/>
<path d="M10020 3131 c0 -6 4 -13 10 -16 6 -3 7 1 4 9 -7 18 -14 21 -14 7z"/>
<path d="M10387 3123 c-4 -3 -7 -11 -7 -17 0 -6 5 -5 12 2 6 6 9 14 7 17 -3 3
-9 2 -12 -2z"/>
<path d="M10060 3086 c0 -2 8 -10 18 -17 15 -13 16 -12 3 4 -13 16 -21 21 -21
13z"/>
<path d="M10340 3070 c-14 -11 -20 -20 -14 -20 6 0 19 9 29 20 23 25 17 25
-15 0z"/>
<path d="M10090 3040 c18 -12 30 -13 30 -2 0 4 -10 9 -22 9 -18 2 -20 0 -8 -7z"/>
<path d="M10275 3040 l-30 -8 27 -1 c15 0 30 4 33 9 3 6 5 9 3 9 -2 -1 -16 -5
-33 -9z"/>
<path d="M10206 3031 c-4 -5 3 -7 14 -4 23 6 26 13 6 13 -8 0 -17 -4 -20 -9z"/>
<path d="M2726 3764 c-5 -14 -4 -15 8 -5 7 6 22 8 31 4 13 -4 16 -3 11 5 -11
18 -43 15 -50 -4z"/>
<path d="M2702 3715 c0 -16 2 -22 5 -12 2 9 2 23 0 30 -3 6 -5 -1 -5 -18z"/>
<path d="M2730 3732 c0 -12 19 -26 26 -19 2 2 -2 10 -11 17 -9 8 -15 8 -15 2z"/>
<path d="M2701 3644 c0 -11 3 -14 6 -6 3 7 2 16 -1 19 -3 4 -6 -2 -5 -13z"/>
<path d="M2730 3575 c0 -9 6 -12 15 -9 8 4 15 10 15 15 0 5 -7 9 -15 9 -8 0
-15 -7 -15 -15z"/>
<path d="M2700 3546 c0 -7 7 -13 15 -13 8 0 15 4 15 8 0 4 -7 9 -15 13 -9 3
-15 0 -15 -8z"/>
<path d="M2700 3501 c0 -11 4 -21 9 -21 18 0 21 18 6 30 -13 10 -15 9 -15 -9z"/>
<path d="M2706 3441 c-3 -5 1 -11 9 -15 8 -3 15 -1 15 4 0 13 -18 22 -24 11z"/>
<path d="M2752 3380 c0 -19 2 -27 5 -17 2 9 2 25 0 35 -3 9 -5 1 -5 -18z"/>
<path d="M2710 3390 c-13 -8 -12 -10 3 -10 9 0 17 5 17 10 0 12 -1 12 -20 0z"/>
<path d="M2702 3245 c0 -16 2 -22 5 -12 2 9 2 23 0 30 -3 6 -5 -1 -5 -18z"/>
<path d="M2700 3191 c0 -5 7 -11 15 -15 9 -3 15 0 15 9 0 8 -7 15 -15 15 -8 0
-15 -4 -15 -9z"/>
<path d="M2750 3181 c0 -11 -7 -24 -16 -29 -9 -5 -14 -15 -10 -21 12 -18 39 3
42 33 1 14 -2 28 -7 31 -5 4 -9 -3 -9 -14z"/>
<path d="M2701 3113 c-1 -29 -8 -50 -21 -63 l-20 -20 22 0 c12 0 19 3 15 6 -3
4 0 19 8 34 10 19 11 36 5 56 -8 27 -8 27 -9 -13z"/>
<path d="M3070 3086 c0 -2 7 -7 16 -10 8 -3 12 -2 9 4 -6 10 -25 14 -25 6z"/>
<path d="M3041 3057 c-6 -6 -32 -14 -59 -18 l-47 -7 56 1 c57 0 104 19 76 30
-8 3 -20 0 -26 -6z"/>
<path d="M2720 3040 c-12 -8 -11 -10 8 -10 12 0 22 5 22 10 0 13 -11 13 -30 0z"/>
<path d="M3378 3750 c3 -23 7 -27 16 -17 7 7 15 20 19 30 5 13 1 17 -17 17
-19 0 -22 -4 -18 -30z"/>
<path d="M3434 3769 c-4 -8 -3 -9 4 -5 8 5 12 -1 12 -16 0 -19 -2 -20 -10 -8
-9 13 -11 13 -20 0 -13 -20 -13 -47 1 -56 9 -5 10 1 5 20 -4 15 -2 26 4 26 6
0 10 -29 9 -75 -1 -42 1 -79 5 -82 3 -4 6 28 6 71 0 43 4 86 10 96 12 22 -13
50 -26 29z"/>
<path d="M3915 3750 c3 -5 12 -7 20 -3 21 7 19 13 -6 13 -11 0 -18 -4 -14 -10z"/>
<path d="M3920 3719 c0 -5 5 -7 10 -4 6 3 10 8 10 11 0 2 -4 4 -10 4 -5 0 -10
-5 -10 -11z"/>
<path d="M3924 3687 c-2 -7 0 -24 5 -38 9 -22 10 -21 10 14 1 37 -5 48 -15 24z"/>
<path d="M3394 3510 c0 -96 2 -136 3 -87 2 48 2 126 0 175 -1 48 -3 8 -3 -88z"/>
<path d="M3411 3644 c0 -11 3 -14 6 -6 3 7 2 16 -1 19 -3 4 -6 -2 -5 -13z"/>
<path d="M3933 3575 c0 -22 2 -30 4 -17 2 12 2 30 0 40 -3 9 -5 -1 -4 -23z"/>
<path d="M3417 3523 c-4 -3 -7 -30 -7 -59 0 -43 3 -53 20 -57 15 -4 20 0 20
14 0 10 -6 18 -12 17 -9 -2 -12 11 -10 45 3 47 1 53 -11 40z"/>
<path d="M3442 3505 c0 -16 2 -22 5 -12 2 9 2 23 0 30 -3 6 -5 -1 -5 -18z"/>
<path d="M3931 3504 c0 -11 3 -14 6 -6 3 7 2 16 -1 19 -3 4 -6 -2 -5 -13z"/>
<path d="M3928 3463 c-2 -5 -1 -35 3 -68 l6 -60 1 68 c2 61 -1 80 -10 60z"/>
<path d="M3442 3345 c0 -16 2 -22 5 -12 2 9 2 23 0 30 -3 6 -5 -1 -5 -18z"/>
<path d="M3411 3319 c1 -13 5 -35 9 -49 7 -19 8 -15 5 18 -4 46 -16 72 -14 31z"/>
<path d="M3391 3314 c0 -11 3 -14 6 -6 3 7 2 16 -1 19 -3 4 -6 -2 -5 -13z"/>
<path d="M3438 3255 c-6 -30 -3 -43 8 -33 3 4 4 19 2 35 l-3 28 -7 -30z"/>
<path d="M3931 3263 c0 -12 -5 -25 -11 -28 -5 -3 -10 -14 -10 -23 0 -11 6 -6
15 12 9 17 14 37 12 45 -3 10 -5 8 -6 -6z"/>
<path d="M3400 3226 c0 -2 8 -10 18 -17 15 -13 16 -12 3 4 -13 16 -21 21 -21
13z"/>
<path d="M3455 3193 c4 -13 -1 -34 -11 -50 l-16 -28 21 25 c23 28 25 39 10 60
-8 12 -9 10 -4 -7z"/>
<path d="M3400 3195 c0 -5 5 -17 10 -25 5 -8 10 -10 10 -5 0 6 -5 17 -10 25
-5 8 -10 11 -10 5z"/>
<path d="M3913 3183 c-15 -5 -17 -23 -4 -23 5 0 11 7 15 15 3 8 4 15 3 14 -1
0 -8 -3 -14 -6z"/>
<path d="M3865 3106 c-13 -13 -30 -26 -37 -29 -10 -4 -9 -6 2 -6 8 -1 28 13
43 29 34 36 27 41 -8 6z"/>
<path d="M3450 3113 c0 -5 9 -18 20 -28 11 -10 20 -14 20 -8 0 5 -9 18 -20 28
-11 10 -20 14 -20 8z"/>
<path d="M3506 3081 c-3 -4 6 -13 20 -20 35 -15 37 -14 14 9 -22 22 -27 24
-34 11z"/>
<path d="M3580 3040 c8 -5 22 -9 30 -9 10 0 8 3 -5 9 -27 12 -43 12 -25 0z"/>
<path d="M3637 3028 c5 -10 52 -9 78 1 13 6 3 8 -31 7 -29 -1 -50 -4 -47 -8z"/>
<path d="M4714 3768 c6 -10 12 -14 14 -9 2 6 10 7 18 4 8 -3 14 -1 14 5 0 5
-13 12 -29 14 -26 4 -28 2 -17 -14z"/>
<path d="M4786 3781 c-4 -5 3 -7 14 -4 23 6 26 13 6 13 -8 0 -17 -4 -20 -9z"/>
<path d="M4288 3762 c9 -10 19 -14 20 -10 5 12 32 10 32 -3 0 -5 5 -7 10 -4 6
3 10 12 10 18 0 17 -42 20 -52 4 -6 -9 -8 -9 -8 1 0 6 -7 12 -15 12 -12 0 -12
-3 3 -18z"/>
<path d="M4375 3770 c-3 -5 -1 -10 4 -10 6 0 11 5 11 10 0 6 -2 10 -4 10 -3 0
-8 -4 -11 -10z"/>
<path d="M4725 3719 c-10 -30 0 -33 13 -4 6 14 7 25 2 25 -5 0 -12 -9 -15 -21z"/>
<path d="M4390 3721 c0 -6 4 -13 10 -16 6 -3 7 1 4 9 -7 18 -14 21 -14 7z"/>
<path d="M4325 3710 c4 -6 11 -8 16 -5 14 9 11 15 -7 15 -8 0 -12 -5 -9 -10z"/>
<path d="M4342 3693 c-6 -2 -10 -9 -7 -13 3 -5 12 -7 20 -3 10 3 15 -1 15 -12
0 -9 -5 -13 -10 -10 -6 4 -5 -5 2 -19 6 -14 15 -26 20 -26 5 0 6 -5 2 -11 -4
-7 -1 -10 6 -7 8 2 16 10 18 18 3 7 0 10 -6 6 -6 -3 -13 -2 -17 4 -3 5 -1 10
6 10 10 0 10 3 1 12 -7 7 -12 19 -12 28 0 13 1 13 10 0 8 -13 10 -12 10 3 0 9
-4 17 -9 17 -5 0 -15 2 -23 4 -7 3 -19 2 -26 -1z"/>
<path d="M4416 3672 c-3 -5 4 -18 16 -28 21 -19 21 -19 8 6 -17 33 -17 33 -24
22z"/>
<path d="M4692 3655 c-17 -37 -14 -45 4 -12 9 16 14 31 11 33 -2 2 -9 -7 -15
-21z"/>
<path d="M4450 3611 c0 -5 7 -14 15 -21 16 -14 18 -10 9 14 -6 17 -24 22 -24
7z"/>
<path d="M4420 3600 c0 -5 5 -10 10 -10 6 0 10 5 10 10 0 6 -4 10 -10 10 -5 0
-10 -4 -10 -10z"/>
<path d="M4410 3572 c0 -12 19 -26 26 -19 2 2 -2 10 -11 17 -9 8 -15 8 -15 2z"/>
<path d="M4472 3550 c-15 -24 -15 -30 -2 -30 6 0 10 7 10 16 0 14 2 15 18 3
16 -13 16 -13 2 6 -8 11 -15 21 -15 22 0 1 -6 -7 -13 -17z"/>
<path d="M4510 3516 c0 -2 7 -6 15 -10 8 -3 15 -1 15 4 0 6 -7 10 -15 10 -8 0
-15 -2 -15 -4z"/>
<path d="M4535 3481 c-3 -5 -2 -12 3 -15 5 -3 9 1 9 9 0 17 -3 19 -12 6z"/>
<path d="M4560 3451 c0 -11 4 -22 9 -25 4 -3 6 6 3 19 -5 30 -12 33 -12 6z"/>
<path d="M4510 3416 c0 -9 5 -16 10 -16 6 0 10 4 10 9 0 6 -4 13 -10 16 -5 3
-10 -1 -10 -9z"/>
<path d="M4594 3388 c11 -17 14 -28 7 -28 -6 0 -11 6 -11 13 0 6 -5 4 -11 -5
-12 -21 -29 -24 -29 -4 0 8 -7 17 -16 20 -21 8 -24 8 -24 -5 0 -5 5 -7 10 -4
6 3 10 3 10 -2 0 -4 7 -17 16 -28 13 -17 16 -18 25 -5 8 13 11 13 23 -3 12
-15 15 -15 25 -3 14 17 4 43 -25 67 -16 13 -16 12 0 -13z"/>
<path d="M4456 3329 c-12 -23 -12 -28 -2 -20 12 11 29 51 21 51 -2 0 -10 -14
-19 -31z"/>
<path d="M4576 3325 c-3 -8 -1 -15 4 -15 6 0 10 7 10 15 0 8 -2 15 -4 15 -2 0
-6 -7 -10 -15z"/>
<path d="M4620 3310 c0 -17 17 -47 23 -40 2 3 -2 16 -10 30 -7 14 -13 18 -13
10z"/>
<path d="M4640 3311 c0 -5 5 -13 10 -16 6 -3 10 -2 10 4 0 5 -4 13 -10 16 -5
3 -10 2 -10 -4z"/>
<path d="M4585 3290 c3 -5 8 -10 11 -10 2 0 4 5 4 10 0 6 -5 10 -11 10 -5 0
-7 -4 -4 -10z"/>
<path d="M4635 3250 c-3 -5 -1 -10 5 -10 6 0 8 -5 5 -10 -4 -6 -11 -7 -17 -4
-7 4 -8 2 -4 -5 11 -17 37 6 29 25 -6 17 -10 17 -18 4z"/>
<path d="M4397 3243 c-4 -3 -7 -11 -7 -17 0 -6 5 -5 12 2 6 6 9 14 7 17 -3 3
-9 2 -12 -2z"/>
<path d="M4670 3227 c0 -32 23 -62 43 -54 10 4 17 -2 21 -16 3 -12 8 -18 12
-14 4 4 1 18 -6 32 -10 19 -16 22 -22 13 -6 -10 -12 -8 -23 7 -14 17 -14 20 0
25 12 4 11 7 -5 18 -18 11 -20 10 -20 -11z"/>
<path d="M4670 3164 c0 -17 17 -36 24 -26 3 5 -1 15 -9 22 -8 7 -15 9 -15 4z"/>
<path d="M4335 3150 c-3 -5 -1 -10 4 -10 6 0 11 5 11 10 0 6 -2 10 -4 10 -3 0
-8 -4 -11 -10z"/>
<path d="M4293 3093 c-15 -21 -31 -39 -35 -41 -5 -2 -8 -9 -8 -15 0 -8 4 -7
12 1 15 15 31 16 22 0 -4 -7 -3 -8 5 -4 6 4 9 11 6 16 -3 4 -2 16 1 25 6 13 9
14 16 3 7 -9 8 -8 4 6 -4 10 -1 25 5 32 6 8 9 14 6 14 -3 0 -19 -17 -34 -37z"/>
<path d="M4708 3108 c15 -8 21 -17 17 -27 -5 -12 -3 -13 5 -5 16 16 1 44 -24
43 -21 0 -21 -1 2 -11z"/>
<path d="M4757 3086 c-4 -9 -2 -18 3 -21 17 -10 11 -23 -12 -28 -13 -3 -4 -4
19 -4 l42 1 -21 30 c-12 17 -22 32 -24 34 -1 2 -4 -4 -7 -12z"/>
<path d="M4820 3039 c0 -5 9 -9 20 -9 11 0 20 2 20 4 0 2 -9 6 -20 9 -11 3
-20 1 -20 -4z"/>
<path d="M6521 3786 c2 -2 26 -7 53 -10 27 -4 57 -11 67 -16 10 -6 24 -10 31
-9 30 1 -80 38 -116 38 -22 1 -37 -1 -35 -3z"/>
<path d="M6348 3773 c-10 -2 -18 -11 -18 -19 0 -8 5 -12 10 -9 6 3 10 1 10 -4
0 -6 5 -11 11 -11 6 0 9 7 5 15 -3 9 0 15 9 15 8 0 15 5 15 10 0 10 -12 11
-42 3z"/>
<path d="M6633 3730 c26 -34 33 -36 33 -11 0 11 -4 17 -8 15 -4 -3 -8 -1 -8 4
0 5 -9 12 -20 15 -19 5 -19 4 3 -23z"/>
<path d="M6332 3710 c0 -14 2 -19 5 -12 2 6 2 18 0 25 -3 6 -5 1 -5 -13z"/>
<path d="M6680 3718 c0 -9 5 -20 11 -23 6 -4 8 -13 5 -21 -10 -25 10 -15 22
11 15 33 15 32 -4 39 -13 5 -14 4 -6 -7 7 -8 9 -17 5 -21 -4 -4 -13 4 -20 16
-9 18 -12 19 -13 6z"/>
<path d="M6370 3700 c-13 -9 -13 -11 0 -20 10 -6 16 -6 18 0 7 20 -3 30 -18
20z"/>
<path d="M6736 3692 c-3 -6 -1 -14 5 -17 14 -9 20 -2 10 14 -6 8 -11 9 -15 3z"/>
<path d="M6336 3639 c-8 -40 -8 -64 0 -56 7 7 16 87 10 87 -2 0 -6 -14 -10
-31z"/>
<path d="M6745 3641 c-3 -5 -1 -12 5 -16 5 -3 10 1 10 9 0 18 -6 21 -15 7z"/>
<path d="M6710 3564 c0 -8 5 -12 10 -9 6 3 10 10 10 16 0 5 -4 9 -10 9 -5 0
-10 -7 -10 -16z"/>
<path d="M6681 3553 c0 -12 -4 -30 -7 -40 -5 -14 -4 -15 5 -7 7 6 11 24 8 40
-3 21 -4 23 -6 7z"/>
<path d="M6744 3546 c-3 -9 -10 -14 -14 -11 -4 3 -7 -6 -6 -19 0 -13 5 -22 9
-19 11 7 29 55 23 61 -3 3 -8 -3 -12 -12z"/>
<path d="M6388 3485 c-4 -22 -8 -52 -8 -67 0 -16 -4 -28 -10 -28 -5 0 -10 -8
-10 -18 0 -10 7 -19 15 -19 17 0 28 60 23 127 l-3 45 -7 -40z"/>
<path d="M6701 3494 c0 -11 3 -14 6 -6 3 7 2 16 -1 19 -3 4 -6 -2 -5 -13z"/>
<path d="M6650 3470 c0 -5 5 -10 10 -10 6 0 10 5 10 10 0 6 -4 10 -10 10 -5 0
-10 -4 -10 -10z"/>
<path d="M6614 3433 c2 -10 6 -17 9 -15 4 1 11 2 15 2 5 0 9 7 9 15 0 8 -8 15
-18 15 -11 0 -16 -7 -15 -17z"/>
<path d="M6540 3400 l-25 -8 28 -1 c15 -1 27 4 27 9 0 6 -1 10 -2 9 -2 -1 -14
-5 -28 -9z"/>
<path d="M6380 3288 c0 -77 15 -87 17 -12 2 38 -1 64 -7 64 -6 0 -10 -24 -10
-52z"/>
<path d="M6332 3290 c0 -14 2 -19 5 -12 2 6 2 18 0 25 -3 6 -5 1 -5 -13z"/>
<path d="M6354 3299 c-3 -6 -1 -16 5 -22 8 -8 11 -5 11 11 0 24 -5 28 -16 11z"/>
<path d="M6333 3195 c0 -27 2 -38 4 -22 2 15 2 37 0 50 -2 12 -4 0 -4 -28z"/>
<path d="M6356 3233 c-3 -3 -6 -17 -6 -31 0 -21 2 -22 15 -12 8 7 15 18 15 26
0 15 -15 26 -24 17z"/>
<path d="M6388 3150 c-11 -38 -10 -56 3 -43 6 6 9 23 7 39 l-3 29 -7 -25z"/>
<path d="M6351 3124 c0 -11 3 -14 6 -6 3 7 2 16 -1 19 -3 4 -6 -2 -5 -13z"/>
<path d="M6332 3100 c0 -19 2 -27 5 -17 2 9 2 25 0 35 -3 9 -5 1 -5 -18z"/>
<path d="M6350 3078 c0 -19 2 -20 10 -8 13 19 13 30 0 30 -5 0 -10 -10 -10
-22z"/>
<path d="M6391 3074 c0 -11 3 -14 6 -6 3 7 2 16 -1 19 -3 4 -6 -2 -5 -13z"/>
<path d="M6300 3040 c-13 -8 -12 -10 3 -10 9 0 17 5 17 10 0 12 -1 12 -20 0z"/>
<path d="M6345 3040 c-14 -7 -8 -8 20 -3 22 3 42 7 44 9 9 8 -45 2 -64 -6z"/>
<path d="M7098 3773 c7 -3 16 -2 19 1 4 3 -2 6 -13 5 -11 0 -14 -3 -6 -6z"/>
<path d="M7061 3754 c0 -11 3 -14 6 -6 3 7 2 16 -1 19 -3 4 -6 -2 -5 -13z"/>
<path d="M7105 3750 c3 -5 8 -10 11 -10 2 0 4 5 4 10 0 6 -5 10 -11 10 -5 0
-7 -4 -4 -10z"/>
<path d="M7090 3702 c0 -5 7 -9 15 -9 8 0 15 4 15 9 0 4 -7 8 -15 8 -8 0 -15
-4 -15 -8z"/>
<path d="M7122 3655 c0 -16 2 -22 5 -12 2 9 2 23 0 30 -3 6 -5 -1 -5 -18z"/>
<path d="M7082 3610 c0 -14 2 -19 5 -12 2 6 2 18 0 25 -3 6 -5 1 -5 -13z"/>
<path d="M7081 3294 c0 -11 3 -14 6 -6 3 7 2 16 -1 19 -3 4 -6 -2 -5 -13z"/>
<path d="M7072 3115 c0 -16 2 -22 5 -12 2 9 2 23 0 30 -3 6 -5 -1 -5 -18z"/>
<path d="M7454 3089 c-19 -22 -19 -22 4 -8 12 8 22 17 22 21 0 12 -6 9 -26
-13z"/>
<path d="M7450 3060 c-13 -8 -12 -10 3 -10 9 0 17 5 17 10 0 12 -1 12 -20 0z"/>
<path d="M7049 3039 c-10 -6 -4 -9 19 -9 17 0 32 2 32 4 0 9 -39 13 -51 5z"/>
<path d="M7238 3043 c7 -3 16 -2 19 1 4 3 -2 6 -13 5 -11 0 -14 -3 -6 -6z"/>
<path d="M7354 3043 c10 -10 46 -11 40 -1 -3 4 -15 8 -26 8 -12 0 -18 -3 -14
-7z"/>
<path d="M7288 3033 c6 -2 18 -2 25 0 6 3 1 5 -13 5 -14 0 -19 -2 -12 -5z"/>
<path d="M7418 3033 c6 -2 18 -2 25 0 6 3 1 5 -13 5 -14 0 -19 -2 -12 -5z"/>
<path d="M8013 3776 c5 -13 3 -17 -7 -13 -10 4 -13 1 -9 -9 3 -7 -1 -14 -8
-14 -7 0 -9 -3 -6 -6 4 -4 14 -1 23 7 16 13 17 12 12 -9 -5 -19 -4 -21 8 -11
10 8 11 16 5 22 -5 5 -7 15 -5 22 3 7 0 16 -7 21 -9 5 -10 2 -6 -10z"/>
<path d="M7974 3703 c-4 -10 -17 -46 -30 -80 -29 -74 -30 -91 -4 -43 11 19 19
33 20 30 1 -23 -95 -268 -110 -280 -18 -14 -6 -15 118 -13 108 1 137 4 135 15
0 7 -15 45 -31 83 -17 39 -43 102 -58 140 -15 39 -31 74 -36 80 -4 5 -8 15 -8
23 0 12 3 12 15 2 8 -7 15 -18 15 -24 1 -6 9 -28 19 -50 17 -36 19 -37 24 -15
10 37 8 43 -8 29 -13 -10 -15 -9 -15 9 0 11 5 21 11 21 6 0 9 6 7 13 -3 6 -9
12 -15 12 -12 0 -43 31 -43 43 0 6 6 13 13 15 9 4 9 6 -1 6 -7 1 -15 -7 -18
-16z"/>
<path d="M8047 3690 c3 -11 9 -20 14 -20 11 0 11 3 3 24 -9 23 -23 20 -17 -4z"/>
<path d="M8071 3647 c-1 -18 25 -77 34 -77 5 0 -5 31 -15 45 -5 6 -10 19 -13
30 -4 17 -5 17 -6 2z"/>
<path d="M8051 3634 c0 -11 3 -14 6 -6 3 7 2 16 -1 19 -3 4 -6 -2 -5 -13z"/>
<path d="M8064 3572 c-18 -12 -26 -50 -14 -69 11 -17 11 -17 6 1 -4 10 1 30
10 43 17 26 16 37 -2 25z"/>
<path d="M8100 3550 c0 -5 5 -10 11 -10 5 0 7 5 4 10 -3 6 -8 10 -11 10 -2 0
-4 -4 -4 -10z"/>
<path d="M8126 3495 c4 -8 8 -15 10 -15 2 0 4 7 4 15 0 8 -4 15 -10 15 -5 0
-7 -7 -4 -15z"/>
<path d="M8126 3457 c3 -10 9 -15 12 -12 3 3 0 11 -7 18 -10 9 -11 8 -5 -6z"/>
<path d="M8080 3440 c0 -8 5 -22 10 -30 9 -13 10 -13 10 0 0 8 -5 22 -10 30
-9 13 -10 13 -10 0z"/>
<path d="M8138 3425 c-10 -13 -18 -29 -18 -34 0 -6 -4 -11 -10 -11 -5 0 -10
-4 -10 -10 0 -20 20 -9 25 13 4 13 12 24 19 24 10 0 11 -8 5 -31 -5 -17 -9
-32 -9 -34 0 -2 -5 0 -11 4 -7 4 -9 -2 -7 -15 3 -24 21 -25 23 -1 1 8 6 24 12
35 11 19 12 19 23 -9 8 -22 8 -31 -1 -37 -7 -4 -8 -12 -4 -20 6 -9 10 -8 16 7
7 17 8 17 8 2 1 -10 5 -18 10 -18 6 0 -2 26 -16 58 -14 31 -28 67 -32 78 l-6
22 -17 -23z"/>
<path d="M7851 3354 c0 -11 3 -14 6 -6 3 7 2 16 -1 19 -3 4 -6 -2 -5 -13z"/>
<path d="M8154 3282 c3 -5 0 -13 -6 -15 -8 -3 -6 -6 5 -6 19 -1 23 14 5 25 -6
4 -8 3 -4 -4z"/>
<path d="M8207 3253 c3 -7 9 -10 14 -7 14 8 11 21 -5 21 -8 0 -12 -6 -9 -14z"/>
<path d="M8218 3232 c-10 -2 -18 -11 -17 -20 0 -11 2 -12 6 -4 11 27 30 9 47
-44 14 -44 15 -59 5 -68 -9 -8 -11 -7 -6 7 8 21 -12 57 -30 57 -7 0 -13 -6
-14 -12 0 -7 -4 -4 -9 7 l-9 20 0 -20 c0 -11 7 -36 14 -55 l14 -35 -2 35 c-1
19 3 35 8 35 6 0 10 -12 10 -27 0 -14 3 -24 6 -22 4 2 9 -3 13 -11 3 -8 13
-15 21 -15 9 0 13 -5 10 -10 -4 -6 -11 -8 -16 -5 -5 4 -9 1 -9 -4 0 -6 10 -11
22 -11 12 0 18 3 15 6 -3 4 -2 15 4 25 7 15 6 21 -5 25 -8 3 -17 21 -21 40
-11 60 -38 110 -57 106z"/>
<path d="M8170 3211 c0 -11 4 -22 9 -25 4 -3 6 6 3 19 -5 30 -12 33 -12 6z"/>
<path d="M7767 3144 c-4 -4 -7 -19 -6 -33 l0 -26 10 24 c10 26 8 47 -4 35z"/>
<path d="M7768 3038 c6 -6 18 -8 28 -6 14 3 12 5 -9 10 -19 3 -25 2 -19 -4z"/>
<path d="M8315 3040 c-3 -5 -1 -10 4 -10 6 0 11 5 11 10 0 6 -2 10 -4 10 -3 0
-8 -4 -11 -10z"/>
<path d="M4041 2464 c0 -11 3 -14 6 -6 3 7 2 16 -1 19 -3 4 -6 -2 -5 -13z"/>
<path d="M4053 2190 c0 -25 2 -35 4 -22 2 12 2 32 0 45 -2 12 -4 2 -4 -23z"/>
<path d="M4058 2141 c-23 -22 -23 -31 0 -31 12 0 18 8 20 25 2 29 2 29 -20 6z"/>
<path d="M4680 2545 c0 -18 19 -40 26 -32 4 4 0 15 -9 24 -9 10 -17 13 -17 8z"/>
<path d="M4480 2513 c0 -15 2 -16 10 -3 7 12 11 10 19 -10 l11 -25 -3 25 c-2
29 -37 42 -37 13z"/>
<path d="M4725 2480 c0 -22 3 -40 8 -40 9 0 9 52 -1 67 -5 7 -8 -4 -7 -27z"/>
<path d="M4706 2475 c4 -8 8 -15 10 -15 2 0 4 7 4 15 0 8 -4 15 -10 15 -5 0
-7 -7 -4 -15z"/>
<path d="M4483 2445 c0 -22 2 -30 4 -17 2 12 2 30 0 40 -3 9 -5 -1 -4 -23z"/>
<path d="M4698 2415 c-3 -14 -1 -25 3 -25 5 0 9 11 9 25 0 14 -2 25 -4 25 -2
0 -6 -11 -8 -25z"/>
<path d="M4500 2413 c0 -13 5 -23 10 -23 13 0 13 11 0 30 -8 12 -10 11 -10 -7z"/>
<path d="M4482 2293 c-2 -95 0 -113 13 -113 8 0 15 -5 15 -11 0 -6 -7 -9 -15
-5 -12 4 -13 2 -2 -14 6 -11 14 -20 17 -20 11 0 5 51 -7 58 -8 5 -13 44 -16
112 l-3 105 -2 -112z"/>
<path d="M4501 2311 c0 -36 5 -59 10 -55 10 6 5 101 -5 111 -3 3 -5 -22 -5
-56z"/>
<path d="M4588 2323 c7 -3 16 -2 19 1 4 3 -2 6 -13 5 -11 0 -14 -3 -6 -6z"/>
<path d="M4650 2220 c0 -5 5 -10 11 -10 5 0 7 5 4 10 -3 6 -8 10 -11 10 -2 0
-4 -4 -4 -10z"/>
<path d="M4670 2191 c0 -6 4 -13 10 -16 6 -3 7 1 4 9 -7 18 -14 21 -14 7z"/>
<path d="M4711 2174 l24 -26 -25 6 c-14 3 -19 3 -12 0 6 -3 9 -10 6 -16 -4 -5
3 -5 16 2 l22 12 -23 24 c-12 13 -25 24 -27 24 -3 0 5 -12 19 -26z"/>
<path d="M4740 2120 c0 -5 5 -10 10 -10 6 0 10 5 10 10 0 6 -4 10 -10 10 -5 0
-10 -4 -10 -10z"/>
<path d="M4498 2113 c7 -3 16 -2 19 1 4 3 -2 6 -13 5 -11 0 -14 -3 -6 -6z"/>
<path d="M5008 2553 c6 -2 18 -2 25 0 6 3 1 5 -13 5 -14 0 -19 -2 -12 -5z"/>
<path d="M5032 2435 c0 -16 2 -22 5 -12 2 9 2 23 0 30 -3 6 -5 -1 -5 -18z"/>
<path d="M5002 2380 c0 -14 2 -19 5 -12 2 6 2 18 0 25 -3 6 -5 1 -5 -13z"/>
<path d="M5032 2320 c0 -14 2 -19 5 -12 2 6 2 18 0 25 -3 6 -5 1 -5 -13z"/>
<path d="M5013 2285 c0 -27 2 -38 4 -22 2 15 2 37 0 50 -2 12 -4 0 -4 -28z"/>
<path d="M5295 2440 c-3 -5 -1 -10 4 -10 6 0 11 5 11 10 0 6 -2 10 -4 10 -3 0
-8 -4 -11 -10z"/>
<path d="M5290 2298 c0 -7 5 -20 10 -28 8 -12 10 -11 10 7 0 12 -4 25 -10 28
-5 3 -10 0 -10 -7z"/>
<path d="M5271 2285 c1 -19 18 -51 18 -35 0 8 -4 22 -9 30 -5 8 -9 11 -9 5z"/>
<path d="M5310 2198 c0 -10 5 -18 11 -18 5 0 8 -4 5 -8 -2 -4 4 -8 14 -8 11 0
16 6 13 14 -3 7 -8 10 -11 8 -3 -3 -11 2 -18 12 -13 16 -13 16 -14 0z"/>
<path d="M6601 2464 c0 -11 3 -14 6 -6 3 7 2 16 -1 19 -3 4 -6 -2 -5 -13z"/>
<path d="M6611 2418 c0 -13 3 -17 6 -10 4 10 9 9 24 -4 10 -9 19 -13 19 -8 0
5 -12 17 -25 27 -25 18 -25 18 -24 -5z"/>
<path d="M6661 2381 c-10 -7 -7 -9 12 -8 14 1 23 5 20 10 -6 9 -15 9 -32 -2z"/>
<path d="M6702 2350 c-7 -11 -8 -20 -3 -20 6 0 13 5 16 10 3 6 11 10 16 10 6
0 7 -4 4 -10 -3 -5 0 -10 7 -11 7 0 4 -4 -6 -8 -19 -7 -19 -8 3 -14 13 -3 20
-3 17 0 -3 4 -1 12 4 18 7 9 3 17 -14 29 -31 20 -29 20 -44 -4z"/>
<path d="M6822 2255 c0 -16 2 -22 5 -12 2 9 2 23 0 30 -3 6 -5 -1 -5 -18z"/>
<path d="M7595 2530 c3 -5 8 -10 11 -10 2 0 4 5 4 10 0 6 -5 10 -11 10 -5 0
-7 -4 -4 -10z"/>
<path d="M7622 2500 c0 -19 2 -27 5 -17 2 9 2 25 0 35 -3 9 -5 1 -5 -18z"/>
<path d="M7602 2470 c0 -14 2 -19 5 -12 2 6 2 18 0 25 -3 6 -5 1 -5 -13z"/>
<path d="M7620 2429 c0 -17 -4 -28 -10 -24 -5 3 -10 -3 -10 -14 0 -14 5 -19
15 -15 10 4 15 20 15 45 0 21 -2 39 -5 39 -3 0 -5 -14 -5 -31z"/>
<path d="M7607 2302 c7 -4 14 -38 16 -77 l3 -70 2 78 c2 67 0 77 -15 77 -12 0
-14 -3 -6 -8z"/>
<path d="M7602 2260 c0 -19 2 -27 5 -17 2 9 2 25 0 35 -3 9 -5 1 -5 -18z"/>
<path d="M7608 2133 c6 -2 18 -2 25 0 6 3 1 5 -13 5 -14 0 -19 -2 -12 -5z"/>
<path d="M7608 2113 c6 -2 18 -2 25 0 6 3 1 5 -13 5 -14 0 -19 -2 -12 -5z"/>
<path d="M9060 2553 c0 -15 19 -37 26 -31 3 4 -1 14 -10 23 -9 9 -16 13 -16 8z"/>
<path d="M9072 2490 c0 -14 2 -19 5 -12 2 6 2 18 0 25 -3 6 -5 1 -5 -13z"/>
<path d="M9091 2494 c0 -11 3 -14 6 -6 3 7 2 16 -1 19 -3 4 -6 -2 -5 -13z"/>
<path d="M9093 2435 c0 -22 2 -30 4 -17 2 12 2 30 0 40 -3 9 -5 -1 -4 -23z"/>
<path d="M9093 2285 c0 -22 2 -30 4 -17 2 12 2 30 0 40 -3 9 -5 -1 -4 -23z"/>
<path d="M9073 2245 c0 -38 2 -53 4 -32 2 20 2 52 0 70 -2 17 -4 1 -4 -38z"/>
<path d="M9071 2138 c-1 -21 4 -28 17 -28 11 0 13 3 6 8 -7 4 -14 16 -17 27
-4 15 -5 14 -6 -7z"/>
<path d="M9330 2467 c0 -10 7 -25 15 -33 19 -19 19 -7 0 26 -11 20 -14 21 -15
7z"/>
<path d="M9412 2364 c4 -3 12 -6 20 -8 7 -1 18 -4 23 -7 17 -10 45 -19 45 -14
0 8 -59 35 -76 35 -10 0 -15 -3 -12 -6z"/>
<path d="M9425 2329 c4 -5 16 -9 27 -9 26 0 19 9 -11 15 -12 2 -19 0 -16 -6z"/>
<path d="M3630 2549 c0 -5 5 -7 10 -4 6 3 10 8 10 11 0 2 -4 4 -10 4 -5 0 -10
-5 -10 -11z"/>
<path d="M3640 2490 c-6 -11 -8 -20 -6 -20 3 0 10 9 16 20 6 11 8 20 6 20 -3
0 -10 -9 -16 -20z"/>
<path d="M3610 2478 c0 -2 -16 -47 -34 -100 -19 -54 -31 -100 -28 -102 4 -2
42 -2 85 -1 75 3 77 2 83 -22 4 -13 9 -22 12 -19 9 10 -20 65 -32 60 -8 -3
-24 28 -45 91 -28 79 -40 108 -41 93z"/>
<path d="M3666 2460 c3 -14 11 -32 16 -40 6 -10 7 -7 2 10 -3 14 -11 32 -16
40 -6 10 -7 7 -2 -10z"/>
<path d="M3655 2410 c3 -5 8 -10 11 -10 2 0 4 5 4 10 0 6 -5 10 -11 10 -5 0
-7 -4 -4 -10z"/>
<path d="M3670 2381 c0 -5 5 -13 10 -16 6 -3 10 -2 10 4 0 5 -4 13 -10 16 -5
3 -10 2 -10 -4z"/>
<path d="M3701 2370 c0 -8 4 -22 9 -30 12 -18 12 -2 0 25 -6 13 -9 15 -9 5z"/>
<path d="M3735 2270 c3 -5 8 -10 11 -10 2 0 4 5 4 10 0 6 -5 10 -11 10 -5 0
-7 -4 -4 -10z"/>
<path d="M3730 2205 c0 -8 4 -15 10 -15 5 0 7 7 4 15 -4 8 -8 15 -10 15 -2 0
-4 -7 -4 -15z"/>
<path d="M3760 2210 c1 -8 7 -24 15 -34 19 -25 19 -16 0 20 -8 16 -15 22 -15
14z"/>
<path d="M3780 2131 c0 -5 -8 -12 -17 -14 -10 -3 -1 -5 20 -6 34 -1 37 1 23
14 -17 17 -26 19 -26 6z"/>
<path d="M5922 2413 c-51 -140 -50 -138 -34 -137 6 1 41 2 77 3 l66 1 -15 28
c-34 68 -64 168 -54 185 5 10 8 22 6 28 -2 6 -23 -43 -46 -108z"/>
<path d="M5976 2503 c-11 -11 -6 -23 9 -23 8 0 15 4 15 9 0 13 -16 22 -24 14z"/>
<path d="M5985 2430 c3 -5 8 -10 11 -10 2 0 4 5 4 10 0 6 -5 10 -11 10 -5 0
-7 -4 -4 -10z"/>
<path d="M6000 2399 c0 -8 7 -24 15 -35 8 -10 15 -15 15 -10 0 6 7 1 15 -10
13 -18 14 -18 8 4 -6 26 -23 40 -24 20 0 -7 -7 1 -14 17 -8 17 -14 23 -15 14z"/>
<path d="M6026 2317 c3 -10 9 -15 12 -12 3 3 0 11 -7 18 -10 9 -11 8 -5 -6z"/>
<path d="M6050 2305 c0 -8 2 -15 4 -15 2 0 6 7 10 15 3 8 1 15 -4 15 -6 0 -10
-7 -10 -15z"/>
<path d="M6072 2235 c-9 -20 -9 -24 -1 -19 9 5 10 0 7 -14 -8 -30 0 -27 12 4
6 14 6 32 2 40 -7 12 -11 10 -20 -11z"/>
<path d="M6117 2183 c-15 -14 -7 -53 11 -53 13 0 14 2 3 9 -8 5 -11 16 -6 30
6 21 4 26 -8 14z"/>
<path d="M6092 2150 c0 -14 2 -19 5 -12 2 6 2 18 0 25 -3 6 -5 1 -5 -13z"/>
<path d="M7185 2510 c18 -20 20 -34 3 -24 -7 4 -8 3 -4 -5 4 -6 11 -9 16 -6 4
3 11 -1 13 -7 4 -8 6 -7 6 4 1 9 -6 23 -14 31 -8 8 -12 17 -10 19 3 3 -2 5
-10 5 -13 0 -13 -2 0 -17z"/>
<path d="M7127 2382 c-15 -48 -27 -92 -27 -97 0 -7 26 -10 68 -9 51 1 66 4 64
15 -4 25 -66 179 -72 179 -3 0 -17 -40 -33 -88z"/>
<path d="M7224 2427 c5 -19 3 -26 -4 -22 -12 7 -12 3 -4 -19 5 -13 8 -13 20
-1 18 17 17 25 -3 50 -15 19 -15 19 -9 -8z"/>
<path d="M7230 2348 c0 -6 6 -8 14 -5 16 6 30 -30 15 -39 -5 -3 -9 -13 -9 -22
1 -15 2 -15 15 2 10 13 15 15 15 6 0 -7 2 -11 5 -8 10 10 -23 71 -39 74 -9 1
-16 -2 -16 -8z"/>
<path d="M7274 2235 c4 -16 12 -34 17 -40 5 -5 4 6 -2 25 -15 45 -24 54 -15
15z"/>
<path d="M7290 2251 c0 -5 5 -13 10 -16 6 -3 10 -2 10 4 0 5 -4 13 -10 16 -5
3 -10 2 -10 -4z"/>
<path d="M7311 2204 c0 -11 3 -14 6 -6 3 7 2 16 -1 19 -3 4 -6 -2 -5 -13z"/>
<path d="M7328 2138 c12 -6 22 -15 22 -20 0 -4 5 -8 10 -8 6 0 5 8 -2 20 -7
11 -22 20 -33 19 -19 0 -19 -1 3 -11z"/>
<path d="M8121 2514 c0 -11 3 -14 6 -6 3 7 2 16 -1 19 -3 4 -6 -2 -5 -13z"/>
<path d="M8086 2403 c-17 -59 -33 -109 -39 -121 -1 -2 30 -4 68 -5 39 0 70 3
70 9 0 15 -68 184 -74 184 -4 0 -15 -30 -25 -67z"/>
<path d="M8142 2440 c0 -14 2 -19 5 -12 2 6 2 18 0 25 -3 6 -5 1 -5 -13z"/>
<path d="M8166 2445 c-8 -23 -8 -27 4 -20 6 3 10 -1 10 -9 0 -8 4 -17 10 -21
5 -3 4 8 -2 27 -14 42 -14 42 -22 23z"/>
<path d="M8170 2375 c0 -8 4 -15 10 -15 5 0 7 7 4 15 -4 8 -8 15 -10 15 -2 0
-4 -7 -4 -15z"/>
<path d="M8206 2281 c-3 -5 1 -11 9 -14 9 -4 12 -1 8 9 -6 16 -10 17 -17 5z"/>
<path d="M8231 2224 c0 -11 3 -14 6 -6 3 7 2 16 -1 19 -3 4 -6 -2 -5 -13z"/>
<path d="M8250 2200 c0 -5 5 -10 11 -10 5 0 7 5 4 10 -3 6 -8 10 -11 10 -2 0
-4 -4 -4 -10z"/>
<path d="M8272 2168 c2 -6 10 -14 16 -16 7 -2 10 2 6 12 -7 18 -28 22 -22 4z"/>
<path d="M8734 2541 c18 -19 61 -37 50 -20 -3 5 -11 9 -19 9 -7 0 -15 7 -19
15 -3 8 -11 15 -17 15 -8 0 -5 -7 5 -19z"/>
<path d="M8555 2520 c3 -5 8 -10 11 -10 2 0 4 5 4 10 0 6 -5 10 -11 10 -5 0
-7 -4 -4 -10z"/>
<path d="M8762 2480 c0 -14 2 -19 5 -12 2 6 2 18 0 25 -3 6 -5 1 -5 -13z"/>
<path d="M8562 2440 c0 -14 2 -19 5 -12 2 6 2 18 0 25 -3 6 -5 1 -5 -13z"/>
<path d="M8775 2441 c-3 -5 -1 -12 5 -16 5 -3 10 1 10 9 0 18 -6 21 -15 7z"/>
<path d="M8541 2338 c0 -16 2 -18 6 -8 3 8 11 18 17 22 7 5 4 8 -6 8 -12 0
-18 -7 -17 -22z"/>
<path d="M8563 2235 c0 -27 2 -38 4 -22 2 15 2 37 0 50 -2 12 -4 0 -4 -28z"/>
<path d="M8690 2254 c0 -12 34 -54 43 -54 2 0 7 7 10 14 4 10 1 13 -7 10 -8
-3 -21 5 -30 18 -9 12 -16 18 -16 12z"/>
<path d="M8542 2210 c0 -14 2 -19 5 -12 2 6 2 18 0 25 -3 6 -5 1 -5 -13z"/>
<path d="M8760 2175 c0 -8 2 -15 4 -15 2 0 6 7 10 15 3 8 1 15 -4 15 -6 0 -10
-7 -10 -15z"/>
<path d="M8541 2144 c0 -11 3 -14 6 -6 3 7 2 16 -1 19 -3 4 -6 -2 -5 -13z"/>
<path d="M8548 2113 c6 -2 18 -2 25 0 6 3 1 5 -13 5 -14 0 -19 -2 -12 -5z"/>
</g>
</svg>
